solid ASCII
  facet normal -1.000000e+00 0.000000e+00 0.000000e+00
    outer loop
      vertex   5.800000e+01 -8.000000e+00 0.000000e+00
      vertex   5.800000e+01 0.000000e+00 0.000000e+00
      vertex   5.800000e+01 -8.000000e+00 -5.000000e+00
    endloop
  endfacet
  facet normal -1.000000e+00 0.000000e+00 0.000000e+00
    outer loop
      vertex   5.800000e+01 -8.000000e+00 -5.000000e+00
      vertex   5.800000e+01 0.000000e+00 0.000000e+00
      vertex   5.800000e+01 0.000000e+00 -5.000000e+00
    endloop
  endfacet
  facet normal -0.000000e+00 1.000000e+00 0.000000e+00
    outer loop
      vertex   2.300000e+01 -8.000000e+00 0.000000e+00
      vertex   5.800000e+01 -8.000000e+00 0.000000e+00
      vertex   2.300000e+01 -8.000000e+00 -5.000000e+00
    endloop
  endfacet
  facet normal 0.000000e+00 1.000000e+00 0.000000e+00
    outer loop
      vertex   2.300000e+01 -8.000000e+00 -5.000000e+00
      vertex   5.800000e+01 -8.000000e+00 0.000000e+00
      vertex   5.800000e+01 -8.000000e+00 -5.000000e+00
    endloop
  endfacet
  facet normal 1.000000e+00 0.000000e+00 0.000000e+00
    outer loop
      vertex   2.300000e+01 0.000000e+00 0.000000e+00
      vertex   2.300000e+01 -8.000000e+00 0.000000e+00
      vertex   2.300000e+01 0.000000e+00 -5.000000e+00
    endloop
  endfacet
  facet normal 1.000000e+00 0.000000e+00 0.000000e+00
    outer loop
      vertex   2.300000e+01 0.000000e+00 -5.000000e+00
      vertex   2.300000e+01 -8.000000e+00 0.000000e+00
      vertex   2.300000e+01 -8.000000e+00 -5.000000e+00
    endloop
  endfacet
  facet normal 0.000000e+00 -1.000000e+00 0.000000e+00
    outer loop
      vertex   7.600000e+01 0.000000e+00 0.000000e+00
      vertex   7.600000e+01 0.000000e+00 1.000000e+02
      vertex   5.800000e+01 0.000000e+00 0.000000e+00
    endloop
  endfacet
  facet normal 0.000000e+00 -1.000000e+00 0.000000e+00
    outer loop
      vertex   5.800000e+01 0.000000e+00 0.000000e+00
      vertex   7.600000e+01 0.000000e+00 1.000000e+02
      vertex   4.739005e+01 0.000000e+00 9.394811e+01
    endloop
  endfacet
  facet normal 0.000000e+00 -1.000000e+00 0.000000e+00
    outer loop
      vertex   5.800000e+01 0.000000e+00 0.000000e+00
      vertex   4.739005e+01 0.000000e+00 9.394811e+01
      vertex   4.595438e+01 0.000000e+00 9.280053e+01
    endloop
  endfacet
  facet normal 0.000000e+00 -1.000000e+00 -0.000000e+00
    outer loop
      vertex   5.144162e+01 0.000000e+00 1.000000e+02
      vertex   5.071569e+01 0.000000e+00 9.831149e+01
      vertex   7.600000e+01 0.000000e+00 1.000000e+02
    endloop
  endfacet
  facet normal 0.000000e+00 -1.000000e+00 0.000000e+00
    outer loop
      vertex   7.600000e+01 0.000000e+00 1.000000e+02
      vertex   5.071569e+01 0.000000e+00 9.831149e+01
      vertex   4.978870e+01 0.000000e+00 9.672443e+01
    endloop
  endfacet
  facet normal 0.000000e+00 -1.000000e+00 0.000000e+00
    outer loop
      vertex   7.600000e+01 0.000000e+00 1.000000e+02
      vertex   4.978870e+01 0.000000e+00 9.672443e+01
      vertex   4.867458e+01 0.000000e+00 9.526265e+01
    endloop
  endfacet
  facet normal 0.000000e+00 -1.000000e+00 -0.000000e+00
    outer loop
      vertex   4.867458e+01 0.000000e+00 9.526265e+01
      vertex   4.739005e+01 0.000000e+00 9.394811e+01
      vertex   7.600000e+01 0.000000e+00 1.000000e+02
    endloop
  endfacet
  facet normal 0.000000e+00 -1.000000e+00 -0.000000e+00
    outer loop
      vertex   4.595438e+01 0.000000e+00 9.280053e+01
      vertex   4.438915e+01 0.000000e+00 9.183715e+01
      vertex   5.800000e+01 0.000000e+00 0.000000e+00
    endloop
  endfacet
  facet normal 0.000000e+00 -1.000000e+00 0.000000e+00
    outer loop
      vertex   5.800000e+01 0.000000e+00 0.000000e+00
      vertex   4.438915e+01 0.000000e+00 9.183715e+01
      vertex   4.271785e+01 0.000000e+00 9.107243e+01
    endloop
  endfacet
  facet normal 0.000000e+00 -1.000000e+00 0.000000e+00
    outer loop
      vertex   5.800000e+01 0.000000e+00 0.000000e+00
      vertex   4.271785e+01 0.000000e+00 9.107243e+01
      vertex   4.096557e+01 0.000000e+00 9.051785e+01
    endloop
  endfacet
  facet normal 0.000000e+00 -1.000000e+00 -0.000000e+00
    outer loop
      vertex   4.096557e+01 0.000000e+00 9.051785e+01
      vertex   3.915861e+01 0.000000e+00 9.018173e+01
      vertex   5.800000e+01 0.000000e+00 0.000000e+00
    endloop
  endfacet
  facet normal 0.000000e+00 -1.000000e+00 0.000000e+00
    outer loop
      vertex   5.800000e+01 0.000000e+00 0.000000e+00
      vertex   3.915861e+01 0.000000e+00 9.018173e+01
      vertex   2.300000e+01 0.000000e+00 0.000000e+00
    endloop
  endfacet
  facet normal -0.000000e+00 -1.000000e+00 -0.000000e+00
    outer loop
      vertex   5.800000e+01 0.000000e+00 0.000000e+00
      vertex   2.300000e+01 0.000000e+00 0.000000e+00
      vertex   5.800000e+01 0.000000e+00 -5.000000e+00
    endloop
  endfacet
  facet normal 0.000000e+00 -1.000000e+00 0.000000e+00
    outer loop
      vertex   5.800000e+01 0.000000e+00 -5.000000e+00
      vertex   2.300000e+01 0.000000e+00 0.000000e+00
      vertex   2.300000e+01 0.000000e+00 -5.000000e+00
    endloop
  endfacet
  facet normal 0.000000e+00 -1.000000e+00 0.000000e+00
    outer loop
      vertex   3.915861e+01 0.000000e+00 9.018173e+01
      vertex   3.732412e+01 0.000000e+00 9.006913e+01
      vertex   2.300000e+01 0.000000e+00 0.000000e+00
    endloop
  endfacet
  facet normal 0.000000e+00 -1.000000e+00 0.000000e+00
    outer loop
      vertex   2.300000e+01 0.000000e+00 0.000000e+00
      vertex   3.732412e+01 0.000000e+00 9.006913e+01
      vertex   3.548962e+01 0.000000e+00 9.018173e+01
    endloop
  endfacet
  facet normal 0.000000e+00 -1.000000e+00 0.000000e+00
    outer loop
      vertex   2.300000e+01 0.000000e+00 0.000000e+00
      vertex   3.548962e+01 0.000000e+00 9.018173e+01
      vertex   3.368267e+01 0.000000e+00 9.051785e+01
    endloop
  endfacet
  facet normal -0.000000e+00 -1.000000e+00 0.000000e+00
    outer loop
      vertex   3.368267e+01 0.000000e+00 9.051785e+01
      vertex   3.193038e+01 0.000000e+00 9.107243e+01
      vertex   2.300000e+01 0.000000e+00 0.000000e+00
    endloop
  endfacet
  facet normal 0.000000e+00 -1.000000e+00 0.000000e+00
    outer loop
      vertex   2.300000e+01 0.000000e+00 0.000000e+00
      vertex   3.193038e+01 0.000000e+00 9.107243e+01
      vertex   3.025908e+01 0.000000e+00 9.183715e+01
    endloop
  endfacet
  facet normal 0.000000e+00 -1.000000e+00 0.000000e+00
    outer loop
      vertex   2.300000e+01 0.000000e+00 0.000000e+00
      vertex   3.025908e+01 0.000000e+00 9.183715e+01
      vertex   2.869385e+01 0.000000e+00 9.280053e+01
    endloop
  endfacet
  facet normal 0.000000e+00 -1.000000e+00 0.000000e+00
    outer loop
      vertex   2.300000e+01 0.000000e+00 0.000000e+00
      vertex   2.869385e+01 0.000000e+00 9.280053e+01
      vertex   0.000000e+00 0.000000e+00 0.000000e+00
    endloop
  endfacet
  facet normal 0.000000e+00 -1.000000e+00 0.000000e+00
    outer loop
      vertex   0.000000e+00 0.000000e+00 0.000000e+00
      vertex   2.869385e+01 0.000000e+00 9.280053e+01
      vertex   2.725819e+01 0.000000e+00 9.394811e+01
    endloop
  endfacet
  facet normal 0.000000e+00 -1.000000e+00 0.000000e+00
    outer loop
      vertex   0.000000e+00 0.000000e+00 0.000000e+00
      vertex   2.725819e+01 0.000000e+00 9.394811e+01
      vertex   0.000000e+00 0.000000e+00 1.000000e+02
    endloop
  endfacet
  facet normal 0.000000e+00 -1.000000e+00 0.000000e+00
    outer loop
      vertex   0.000000e+00 0.000000e+00 1.000000e+02
      vertex   2.725819e+01 0.000000e+00 9.394811e+01
      vertex   2.597365e+01 0.000000e+00 9.526265e+01
    endloop
  endfacet
  facet normal 0.000000e+00 -1.000000e+00 0.000000e+00
    outer loop
      vertex   0.000000e+00 0.000000e+00 1.000000e+02
      vertex   2.597365e+01 0.000000e+00 9.526265e+01
      vertex   2.485953e+01 0.000000e+00 9.672443e+01
    endloop
  endfacet
  facet normal 0.000000e+00 -1.000000e+00 0.000000e+00
    outer loop
      vertex   2.485953e+01 0.000000e+00 9.672443e+01
      vertex   2.393254e+01 0.000000e+00 9.831149e+01
      vertex   0.000000e+00 0.000000e+00 1.000000e+02
    endloop
  endfacet
  facet normal 0.000000e+00 -1.000000e+00 0.000000e+00
    outer loop
      vertex   0.000000e+00 0.000000e+00 1.000000e+02
      vertex   2.393254e+01 0.000000e+00 9.831149e+01
      vertex   2.320661e+01 0.000000e+00 1.000000e+02
    endloop
  endfacet
  facet normal 0.000000e+00 0.000000e+00 -1.000000e+00
    outer loop
      vertex   7.600000e+01 -4.660962e-01 8.751865e+01
      vertex   8.100000e+01 -4.660962e-01 8.751865e+01
      vertex   7.600000e+01 -9.315752e+00 8.751865e+01
    endloop
  endfacet
  facet normal 0.000000e+00 0.000000e+00 -1.000000e+00
    outer loop
      vertex   7.600000e+01 -9.315752e+00 8.751865e+01
      vertex   8.100000e+01 -4.660962e-01 8.751865e+01
      vertex   8.100000e+01 -9.315752e+00 8.751865e+01
    endloop
  endfacet
  facet normal 0.000000e+00 1.000000e+00 0.000000e+00
    outer loop
      vertex   8.100000e+01 -9.315752e+00 8.751865e+01
      vertex   8.100000e+01 -9.315752e+00 6.562799e+01
      vertex   7.600000e+01 -9.315752e+00 8.751865e+01
    endloop
  endfacet
  facet normal 0.000000e+00 1.000000e+00 0.000000e+00
    outer loop
      vertex   7.600000e+01 -9.315752e+00 8.751865e+01
      vertex   8.100000e+01 -9.315752e+00 6.562799e+01
      vertex   7.600000e+01 -9.315752e+00 6.562799e+01
    endloop
  endfacet
  facet normal -0.000000e+00 0.000000e+00 1.000000e+00
    outer loop
      vertex   7.600000e+01 -4.660962e-01 6.562799e+01
      vertex   7.600000e+01 -9.315752e+00 6.562799e+01
      vertex   8.100000e+01 -4.660962e-01 6.562799e+01
    endloop
  endfacet
  facet normal 0.000000e+00 0.000000e+00 1.000000e+00
    outer loop
      vertex   8.100000e+01 -4.660962e-01 6.562799e+01
      vertex   7.600000e+01 -9.315752e+00 6.562799e+01
      vertex   8.100000e+01 -9.315752e+00 6.562799e+01
    endloop
  endfacet
  facet normal 0.000000e+00 -1.000000e+00 0.000000e+00
    outer loop
      vertex   7.600000e+01 -4.660962e-01 8.751865e+01
      vertex   7.600000e+01 -4.660962e-01 6.562799e+01
      vertex   8.100000e+01 -4.660962e-01 8.751865e+01
    endloop
  endfacet
  facet normal 0.000000e+00 -1.000000e+00 -0.000000e+00
    outer loop
      vertex   8.100000e+01 -4.660962e-01 8.751865e+01
      vertex   7.600000e+01 -4.660962e-01 6.562799e+01
      vertex   8.100000e+01 -4.660962e-01 6.562799e+01
    endloop
  endfacet
  facet normal 1.000000e+00 0.000000e+00 -0.000000e+00
    outer loop
      vertex   1.000000e+01 -1.000000e+01 4.000000e+01
      vertex   1.000000e+01 -1.000000e+01 1.500000e+02
      vertex   1.000000e+01 -1.500000e+01 4.000000e+01
    endloop
  endfacet
  facet normal 1.000000e+00 0.000000e+00 0.000000e+00
    outer loop
      vertex   1.000000e+01 -1.500000e+01 4.000000e+01
      vertex   1.000000e+01 -1.000000e+01 1.500000e+02
      vertex   1.000000e+01 -1.500000e+01 1.500000e+02
    endloop
  endfacet
  facet normal 0.000000e+00 0.000000e+00 1.000000e+00
    outer loop
      vertex   7.000000e+01 -1.000000e+01 4.000000e+01
      vertex   1.000000e+01 -1.000000e+01 4.000000e+01
      vertex   7.000000e+01 -1.500000e+01 4.000000e+01
    endloop
  endfacet
  facet normal 0.000000e+00 0.000000e+00 1.000000e+00
    outer loop
      vertex   7.000000e+01 -1.500000e+01 4.000000e+01
      vertex   1.000000e+01 -1.000000e+01 4.000000e+01
      vertex   1.000000e+01 -1.500000e+01 4.000000e+01
    endloop
  endfacet
  facet normal -1.000000e+00 -0.000000e+00 -0.000000e+00
    outer loop
      vertex   7.000000e+01 -1.000000e+01 1.500000e+02
      vertex   7.000000e+01 -1.000000e+01 4.000000e+01
      vertex   7.000000e+01 -1.500000e+01 1.500000e+02
    endloop
  endfacet
  facet normal -1.000000e+00 0.000000e+00 0.000000e+00
    outer loop
      vertex   7.000000e+01 -1.500000e+01 1.500000e+02
      vertex   7.000000e+01 -1.000000e+01 4.000000e+01
      vertex   7.000000e+01 -1.500000e+01 4.000000e+01
    endloop
  endfacet
  facet normal 0.000000e+00 0.000000e+00 -1.000000e+00
    outer loop
      vertex   1.000000e+01 -1.000000e+01 1.500000e+02
      vertex   7.000000e+01 -1.000000e+01 1.500000e+02
      vertex   1.000000e+01 -1.500000e+01 1.500000e+02
    endloop
  endfacet
  facet normal 0.000000e+00 0.000000e+00 -1.000000e+00
    outer loop
      vertex   1.000000e+01 -1.500000e+01 1.500000e+02
      vertex   7.000000e+01 -1.000000e+01 1.500000e+02
      vertex   7.000000e+01 -1.500000e+01 1.500000e+02
    endloop
  endfacet
  facet normal 9.186950e-01 0.000000e+00 3.949676e-01
    outer loop
      vertex   2.320661e+01 5.000000e+00 1.000000e+02
      vertex   2.320661e+01 0.000000e+00 1.000000e+02
      vertex   2.393254e+01 5.000000e+00 9.831149e+01
    endloop
  endfacet
  facet normal 9.186950e-01 0.000000e+00 3.949676e-01
    outer loop
      vertex   2.393254e+01 5.000000e+00 9.831149e+01
      vertex   2.320661e+01 0.000000e+00 1.000000e+02
      vertex   2.393254e+01 0.000000e+00 9.831149e+01
    endloop
  endfacet
  facet normal 8.634941e-01 0.000000e+00 5.043589e-01
    outer loop
      vertex   2.393254e+01 5.000000e+00 9.831149e+01
      vertex   2.393254e+01 0.000000e+00 9.831149e+01
      vertex   2.485953e+01 5.000000e+00 9.672443e+01
    endloop
  endfacet
  facet normal 8.634941e-01 6.135495e-16 5.043589e-01
    outer loop
      vertex   2.485953e+01 5.000000e+00 9.672443e+01
      vertex   2.393254e+01 0.000000e+00 9.831149e+01
      vertex   2.485953e+01 0.000000e+00 9.672443e+01
    endloop
  endfacet
  facet normal 7.953291e-01 5.651153e-16 6.061779e-01
    outer loop
      vertex   2.485953e+01 5.000000e+00 9.672443e+01
      vertex   2.485953e+01 0.000000e+00 9.672443e+01
      vertex   2.597365e+01 5.000000e+00 9.526265e+01
    endloop
  endfacet
  facet normal 7.953291e-01 5.651153e-16 6.061779e-01
    outer loop
      vertex   2.597365e+01 5.000000e+00 9.526265e+01
      vertex   2.485953e+01 0.000000e+00 9.672443e+01
      vertex   2.597365e+01 0.000000e+00 9.526265e+01
    endloop
  endfacet
  facet normal 7.152233e-01 5.081967e-16 6.988960e-01
    outer loop
      vertex   2.597365e+01 5.000000e+00 9.526265e+01
      vertex   2.597365e+01 0.000000e+00 9.526265e+01
      vertex   2.725819e+01 5.000000e+00 9.394811e+01
    endloop
  endfacet
  facet normal 7.152233e-01 5.081967e-16 6.988960e-01
    outer loop
      vertex   2.725819e+01 5.000000e+00 9.394811e+01
      vertex   2.597365e+01 0.000000e+00 9.526265e+01
      vertex   2.725819e+01 0.000000e+00 9.394811e+01
    endloop
  endfacet
  facet normal 6.243795e-01 4.436483e-16 7.811212e-01
    outer loop
      vertex   2.725819e+01 5.000000e+00 9.394811e+01
      vertex   2.725819e+01 0.000000e+00 9.394811e+01
      vertex   2.869385e+01 5.000000e+00 9.280053e+01
    endloop
  endfacet
  facet normal 6.243795e-01 1.330945e-15 7.811212e-01
    outer loop
      vertex   2.869385e+01 5.000000e+00 9.280053e+01
      vertex   2.725819e+01 0.000000e+00 9.394811e+01
      vertex   2.869385e+01 0.000000e+00 9.280053e+01
    endloop
  endfacet
  facet normal 5.241615e-01 1.117317e-15 8.516189e-01
    outer loop
      vertex   2.869385e+01 5.000000e+00 9.280053e+01
      vertex   2.869385e+01 0.000000e+00 9.280053e+01
      vertex   3.025908e+01 5.000000e+00 9.183715e+01
    endloop
  endfacet
  facet normal 5.241615e-01 3.724391e-16 8.516189e-01
    outer loop
      vertex   3.025908e+01 5.000000e+00 9.183715e+01
      vertex   2.869385e+01 0.000000e+00 9.280053e+01
      vertex   3.025908e+01 0.000000e+00 9.183715e+01
    endloop
  endfacet
  facet normal 4.160739e-01 2.956383e-16 9.093308e-01
    outer loop
      vertex   3.025908e+01 5.000000e+00 9.183715e+01
      vertex   3.025908e+01 0.000000e+00 9.183715e+01
      vertex   3.193038e+01 5.000000e+00 9.107243e+01
    endloop
  endfacet
  facet normal 4.160739e-01 5.912766e-16 9.093308e-01
    outer loop
      vertex   3.193038e+01 5.000000e+00 9.107243e+01
      vertex   3.025908e+01 0.000000e+00 9.183715e+01
      vertex   3.193038e+01 0.000000e+00 9.107243e+01
    endloop
  endfacet
  facet normal 3.017396e-01 4.287977e-16 9.533904e-01
    outer loop
      vertex   3.193038e+01 5.000000e+00 9.107243e+01
      vertex   3.193038e+01 0.000000e+00 9.107243e+01
      vertex   3.368267e+01 5.000000e+00 9.051785e+01
    endloop
  endfacet
  facet normal 3.017396e-01 4.287977e-16 9.533904e-01
    outer loop
      vertex   3.368267e+01 5.000000e+00 9.051785e+01
      vertex   3.193038e+01 0.000000e+00 9.107243e+01
      vertex   3.368267e+01 0.000000e+00 9.051785e+01
    endloop
  endfacet
  facet normal 1.828751e-01 2.598811e-16 9.831362e-01
    outer loop
      vertex   3.368267e+01 5.000000e+00 9.051785e+01
      vertex   3.368267e+01 0.000000e+00 9.051785e+01
      vertex   3.548962e+01 5.000000e+00 9.018173e+01
    endloop
  endfacet
  facet normal 1.828751e-01 0.000000e+00 9.831362e-01
    outer loop
      vertex   3.548962e+01 5.000000e+00 9.018173e+01
      vertex   3.368267e+01 0.000000e+00 9.051785e+01
      vertex   3.548962e+01 0.000000e+00 9.018173e+01
    endloop
  endfacet
  facet normal 6.126496e-02 0.000000e+00 9.981215e-01
    outer loop
      vertex   3.548962e+01 5.000000e+00 9.018173e+01
      vertex   3.548962e+01 0.000000e+00 9.018173e+01
      vertex   3.732412e+01 5.000000e+00 9.006913e+01
    endloop
  endfacet
  facet normal 6.126496e-02 0.000000e+00 9.981215e-01
    outer loop
      vertex   3.732412e+01 5.000000e+00 9.006913e+01
      vertex   3.548962e+01 0.000000e+00 9.018173e+01
      vertex   3.732412e+01 0.000000e+00 9.006913e+01
    endloop
  endfacet
  facet normal -6.126496e-02 0.000000e+00 9.981215e-01
    outer loop
      vertex   3.732412e+01 5.000000e+00 9.006913e+01
      vertex   3.732412e+01 0.000000e+00 9.006913e+01
      vertex   3.915861e+01 5.000000e+00 9.018173e+01
    endloop
  endfacet
  facet normal -6.126496e-02 0.000000e+00 9.981215e-01
    outer loop
      vertex   3.915861e+01 5.000000e+00 9.018173e+01
      vertex   3.732412e+01 0.000000e+00 9.006913e+01
      vertex   3.915861e+01 0.000000e+00 9.018173e+01
    endloop
  endfacet
  facet normal -1.828751e-01 0.000000e+00 9.831362e-01
    outer loop
      vertex   3.915861e+01 5.000000e+00 9.018173e+01
      vertex   3.915861e+01 0.000000e+00 9.018173e+01
      vertex   4.096557e+01 5.000000e+00 9.051785e+01
    endloop
  endfacet
  facet normal -1.828751e-01 0.000000e+00 9.831362e-01
    outer loop
      vertex   4.096557e+01 5.000000e+00 9.051785e+01
      vertex   3.915861e+01 0.000000e+00 9.018173e+01
      vertex   4.096557e+01 0.000000e+00 9.051785e+01
    endloop
  endfacet
  facet normal -3.017396e-01 0.000000e+00 9.533904e-01
    outer loop
      vertex   4.096557e+01 5.000000e+00 9.051785e+01
      vertex   4.096557e+01 0.000000e+00 9.051785e+01
      vertex   4.271785e+01 5.000000e+00 9.107243e+01
    endloop
  endfacet
  facet normal -3.017396e-01 -4.287977e-16 9.533904e-01
    outer loop
      vertex   4.271785e+01 5.000000e+00 9.107243e+01
      vertex   4.096557e+01 0.000000e+00 9.051785e+01
      vertex   4.271785e+01 0.000000e+00 9.107243e+01
    endloop
  endfacet
  facet normal -4.160739e-01 -5.912766e-16 9.093308e-01
    outer loop
      vertex   4.271785e+01 5.000000e+00 9.107243e+01
      vertex   4.271785e+01 0.000000e+00 9.107243e+01
      vertex   4.438915e+01 5.000000e+00 9.183715e+01
    endloop
  endfacet
  facet normal -4.160739e-01 0.000000e+00 9.093308e-01
    outer loop
      vertex   4.438915e+01 5.000000e+00 9.183715e+01
      vertex   4.271785e+01 0.000000e+00 9.107243e+01
      vertex   4.438915e+01 0.000000e+00 9.183715e+01
    endloop
  endfacet
  facet normal -5.241615e-01 0.000000e+00 8.516189e-01
    outer loop
      vertex   4.438915e+01 5.000000e+00 9.183715e+01
      vertex   4.438915e+01 0.000000e+00 9.183715e+01
      vertex   4.595438e+01 5.000000e+00 9.280053e+01
    endloop
  endfacet
  facet normal -5.241615e-01 -7.448782e-16 8.516189e-01
    outer loop
      vertex   4.595438e+01 5.000000e+00 9.280053e+01
      vertex   4.438915e+01 0.000000e+00 9.183715e+01
      vertex   4.595438e+01 0.000000e+00 9.280053e+01
    endloop
  endfacet
  facet normal -6.243795e-01 -8.872966e-16 7.811212e-01
    outer loop
      vertex   4.595438e+01 5.000000e+00 9.280053e+01
      vertex   4.595438e+01 0.000000e+00 9.280053e+01
      vertex   4.739005e+01 5.000000e+00 9.394811e+01
    endloop
  endfacet
  facet normal -6.243795e-01 0.000000e+00 7.811212e-01
    outer loop
      vertex   4.739005e+01 5.000000e+00 9.394811e+01
      vertex   4.595438e+01 0.000000e+00 9.280053e+01
      vertex   4.739005e+01 0.000000e+00 9.394811e+01
    endloop
  endfacet
  facet normal -7.152233e-01 0.000000e+00 6.988960e-01
    outer loop
      vertex   4.739005e+01 5.000000e+00 9.394811e+01
      vertex   4.739005e+01 0.000000e+00 9.394811e+01
      vertex   4.867458e+01 5.000000e+00 9.526265e+01
    endloop
  endfacet
  facet normal -7.152233e-01 -1.016393e-15 6.988960e-01
    outer loop
      vertex   4.867458e+01 5.000000e+00 9.526265e+01
      vertex   4.739005e+01 0.000000e+00 9.394811e+01
      vertex   4.867458e+01 0.000000e+00 9.526265e+01
    endloop
  endfacet
  facet normal -7.953291e-01 -1.130231e-15 6.061779e-01
    outer loop
      vertex   4.867458e+01 5.000000e+00 9.526265e+01
      vertex   4.867458e+01 0.000000e+00 9.526265e+01
      vertex   4.978870e+01 5.000000e+00 9.672443e+01
    endloop
  endfacet
  facet normal -7.953291e-01 0.000000e+00 6.061779e-01
    outer loop
      vertex   4.978870e+01 5.000000e+00 9.672443e+01
      vertex   4.867458e+01 0.000000e+00 9.526265e+01
      vertex   4.978870e+01 0.000000e+00 9.672443e+01
    endloop
  endfacet
  facet normal -8.634941e-01 0.000000e+00 5.043589e-01
    outer loop
      vertex   4.978870e+01 5.000000e+00 9.672443e+01
      vertex   4.978870e+01 0.000000e+00 9.672443e+01
      vertex   5.071569e+01 5.000000e+00 9.831149e+01
    endloop
  endfacet
  facet normal -8.634941e-01 0.000000e+00 5.043589e-01
    outer loop
      vertex   5.071569e+01 5.000000e+00 9.831149e+01
      vertex   4.978870e+01 0.000000e+00 9.672443e+01
      vertex   5.071569e+01 0.000000e+00 9.831149e+01
    endloop
  endfacet
  facet normal -9.186950e-01 0.000000e+00 3.949676e-01
    outer loop
      vertex   5.071569e+01 5.000000e+00 9.831149e+01
      vertex   5.071569e+01 0.000000e+00 9.831149e+01
      vertex   5.144162e+01 5.000000e+00 1.000000e+02
    endloop
  endfacet
  facet normal -9.186950e-01 0.000000e+00 3.949676e-01
    outer loop
      vertex   5.144162e+01 5.000000e+00 1.000000e+02
      vertex   5.071569e+01 0.000000e+00 9.831149e+01
      vertex   5.144162e+01 0.000000e+00 1.000000e+02
    endloop
  endfacet
  facet normal 0.000000e+00 1.000000e+00 0.000000e+00
    outer loop
      vertex   2.320661e+01 5.000000e+00 1.000000e+02
      vertex   2.393254e+01 5.000000e+00 9.831149e+01
      vertex   -5.000000e+00 5.000000e+00 1.000000e+02
    endloop
  endfacet
  facet normal 0.000000e+00 1.000000e+00 0.000000e+00
    outer loop
      vertex   -5.000000e+00 5.000000e+00 1.000000e+02
      vertex   2.393254e+01 5.000000e+00 9.831149e+01
      vertex   2.485953e+01 5.000000e+00 9.672443e+01
    endloop
  endfacet
  facet normal 0.000000e+00 1.000000e+00 0.000000e+00
    outer loop
      vertex   -5.000000e+00 5.000000e+00 1.000000e+02
      vertex   2.485953e+01 5.000000e+00 9.672443e+01
      vertex   2.597365e+01 5.000000e+00 9.526265e+01
    endloop
  endfacet
  facet normal 0.000000e+00 1.000000e+00 0.000000e+00
    outer loop
      vertex   2.597365e+01 5.000000e+00 9.526265e+01
      vertex   2.725819e+01 5.000000e+00 9.394811e+01
      vertex   -5.000000e+00 5.000000e+00 1.000000e+02
    endloop
  endfacet
  facet normal 0.000000e+00 1.000000e+00 0.000000e+00
    outer loop
      vertex   -5.000000e+00 5.000000e+00 1.000000e+02
      vertex   2.725819e+01 5.000000e+00 9.394811e+01
      vertex   2.869385e+01 5.000000e+00 9.280053e+01
    endloop
  endfacet
  facet normal 0.000000e+00 1.000000e+00 0.000000e+00
    outer loop
      vertex   -5.000000e+00 5.000000e+00 1.000000e+02
      vertex   2.869385e+01 5.000000e+00 9.280053e+01
      vertex   -5.000000e+00 5.000000e+00 -5.000000e+00
    endloop
  endfacet
  facet normal 0.000000e+00 1.000000e+00 0.000000e+00
    outer loop
      vertex   -5.000000e+00 5.000000e+00 -5.000000e+00
      vertex   2.869385e+01 5.000000e+00 9.280053e+01
      vertex   3.025908e+01 5.000000e+00 9.183715e+01
    endloop
  endfacet
  facet normal 0.000000e+00 1.000000e+00 0.000000e+00
    outer loop
      vertex   -5.000000e+00 5.000000e+00 -5.000000e+00
      vertex   3.025908e+01 5.000000e+00 9.183715e+01
      vertex   3.193038e+01 5.000000e+00 9.107243e+01
    endloop
  endfacet
  facet normal 0.000000e+00 1.000000e+00 0.000000e+00
    outer loop
      vertex   3.193038e+01 5.000000e+00 9.107243e+01
      vertex   3.368267e+01 5.000000e+00 9.051785e+01
      vertex   -5.000000e+00 5.000000e+00 -5.000000e+00
    endloop
  endfacet
  facet normal 0.000000e+00 1.000000e+00 0.000000e+00
    outer loop
      vertex   -5.000000e+00 5.000000e+00 -5.000000e+00
      vertex   3.368267e+01 5.000000e+00 9.051785e+01
      vertex   3.548962e+01 5.000000e+00 9.018173e+01
    endloop
  endfacet
  facet normal 0.000000e+00 1.000000e+00 0.000000e+00
    outer loop
      vertex   -5.000000e+00 5.000000e+00 -5.000000e+00
      vertex   3.548962e+01 5.000000e+00 9.018173e+01
      vertex   3.732412e+01 5.000000e+00 9.006913e+01
    endloop
  endfacet
  facet normal 0.000000e+00 1.000000e+00 0.000000e+00
    outer loop
      vertex   -5.000000e+00 5.000000e+00 -5.000000e+00
      vertex   3.732412e+01 5.000000e+00 9.006913e+01
      vertex   8.100000e+01 5.000000e+00 -5.000000e+00
    endloop
  endfacet
  facet normal 0.000000e+00 1.000000e+00 0.000000e+00
    outer loop
      vertex   8.100000e+01 5.000000e+00 -5.000000e+00
      vertex   3.732412e+01 5.000000e+00 9.006913e+01
      vertex   3.915861e+01 5.000000e+00 9.018173e+01
    endloop
  endfacet
  facet normal 0.000000e+00 1.000000e+00 0.000000e+00
    outer loop
      vertex   8.100000e+01 5.000000e+00 -5.000000e+00
      vertex   3.915861e+01 5.000000e+00 9.018173e+01
      vertex   4.096557e+01 5.000000e+00 9.051785e+01
    endloop
  endfacet
  facet normal -0.000000e+00 1.000000e+00 0.000000e+00
    outer loop
      vertex   4.096557e+01 5.000000e+00 9.051785e+01
      vertex   4.271785e+01 5.000000e+00 9.107243e+01
      vertex   8.100000e+01 5.000000e+00 -5.000000e+00
    endloop
  endfacet
  facet normal 0.000000e+00 1.000000e+00 0.000000e+00
    outer loop
      vertex   8.100000e+01 5.000000e+00 -5.000000e+00
      vertex   4.271785e+01 5.000000e+00 9.107243e+01
      vertex   4.438915e+01 5.000000e+00 9.183715e+01
    endloop
  endfacet
  facet normal 0.000000e+00 1.000000e+00 0.000000e+00
    outer loop
      vertex   8.100000e+01 5.000000e+00 -5.000000e+00
      vertex   4.438915e+01 5.000000e+00 9.183715e+01
      vertex   4.595438e+01 5.000000e+00 9.280053e+01
    endloop
  endfacet
  facet normal 0.000000e+00 1.000000e+00 -0.000000e+00
    outer loop
      vertex   8.100000e+01 5.000000e+00 -5.000000e+00
      vertex   4.595438e+01 5.000000e+00 9.280053e+01
      vertex   8.100000e+01 5.000000e+00 1.000000e+02
    endloop
  endfacet
  facet normal 0.000000e+00 1.000000e+00 0.000000e+00
    outer loop
      vertex   8.100000e+01 5.000000e+00 1.000000e+02
      vertex   4.595438e+01 5.000000e+00 9.280053e+01
      vertex   4.739005e+01 5.000000e+00 9.394811e+01
    endloop
  endfacet
  facet normal 0.000000e+00 1.000000e+00 0.000000e+00
    outer loop
      vertex   8.100000e+01 5.000000e+00 1.000000e+02
      vertex   4.739005e+01 5.000000e+00 9.394811e+01
      vertex   4.867458e+01 5.000000e+00 9.526265e+01
    endloop
  endfacet
  facet normal 0.000000e+00 1.000000e+00 0.000000e+00
    outer loop
      vertex   4.867458e+01 5.000000e+00 9.526265e+01
      vertex   4.978870e+01 5.000000e+00 9.672443e+01
      vertex   8.100000e+01 5.000000e+00 1.000000e+02
    endloop
  endfacet
  facet normal 0.000000e+00 1.000000e+00 0.000000e+00
    outer loop
      vertex   8.100000e+01 5.000000e+00 1.000000e+02
      vertex   4.978870e+01 5.000000e+00 9.672443e+01
      vertex   5.071569e+01 5.000000e+00 9.831149e+01
    endloop
  endfacet
  facet normal 0.000000e+00 1.000000e+00 0.000000e+00
    outer loop
      vertex   8.100000e+01 5.000000e+00 1.000000e+02
      vertex   5.071569e+01 5.000000e+00 9.831149e+01
      vertex   5.144162e+01 5.000000e+00 1.000000e+02
    endloop
  endfacet
  facet normal 0.000000e+00 0.000000e+00 1.000000e+00
    outer loop
      vertex   5.144162e+01 0.000000e+00 1.000000e+02
      vertex   7.600000e+01 0.000000e+00 1.000000e+02
      vertex   5.144162e+01 5.000000e+00 1.000000e+02
    endloop
  endfacet
  facet normal -0.000000e+00 0.000000e+00 1.000000e+00
    outer loop
      vertex   5.144162e+01 5.000000e+00 1.000000e+02
      vertex   7.600000e+01 0.000000e+00 1.000000e+02
      vertex   8.100000e+01 5.000000e+00 1.000000e+02
    endloop
  endfacet
  facet normal 0.000000e+00 0.000000e+00 1.000000e+00
    outer loop
      vertex   8.100000e+01 5.000000e+00 1.000000e+02
      vertex   7.600000e+01 0.000000e+00 1.000000e+02
      vertex   8.100000e+01 0.000000e+00 1.000000e+02
    endloop
  endfacet
  facet normal 0.000000e+00 -0.000000e+00 1.000000e+00
    outer loop
      vertex   2.320661e+01 0.000000e+00 1.000000e+02
      vertex   2.320661e+01 5.000000e+00 1.000000e+02
      vertex   0.000000e+00 0.000000e+00 1.000000e+02
    endloop
  endfacet
  facet normal 0.000000e+00 -0.000000e+00 1.000000e+00
    outer loop
      vertex   0.000000e+00 0.000000e+00 1.000000e+02
      vertex   2.320661e+01 5.000000e+00 1.000000e+02
      vertex   -5.000000e+00 5.000000e+00 1.000000e+02
    endloop
  endfacet
  facet normal 0.000000e+00 0.000000e+00 1.000000e+00
    outer loop
      vertex   0.000000e+00 0.000000e+00 1.000000e+02
      vertex   -5.000000e+00 5.000000e+00 1.000000e+02
      vertex   -5.000000e+00 0.000000e+00 1.000000e+02
    endloop
  endfacet
  facet normal 7.654925e-02 6.833143e-17 9.970658e-01
    outer loop
      vertex   3.572408e+01 -1.000000e+01 3.587681e+00
      vertex   3.572408e+01 -1.500000e+01 3.587681e+00
      vertex   3.725057e+01 -1.000000e+01 3.470485e+00
    endloop
  endfacet
  facet normal 7.654925e-02 0.000000e+00 9.970658e-01
    outer loop
      vertex   3.725057e+01 -1.000000e+01 3.470485e+00
      vertex   3.572408e+01 -1.500000e+01 3.587681e+00
      vertex   3.725057e+01 -1.500000e+01 3.470485e+00
    endloop
  endfacet
  facet normal -7.654925e-02 0.000000e+00 9.970658e-01
    outer loop
      vertex   3.725057e+01 -1.000000e+01 3.470485e+00
      vertex   3.725057e+01 -1.500000e+01 3.470485e+00
      vertex   3.877706e+01 -1.000000e+01 3.587681e+00
    endloop
  endfacet
  facet normal -7.654925e-02 -6.833143e-17 9.970658e-01
    outer loop
      vertex   3.877706e+01 -1.000000e+01 3.587681e+00
      vertex   3.725057e+01 -1.500000e+01 3.470485e+00
      vertex   3.877706e+01 -1.500000e+01 3.587681e+00
    endloop
  endfacet
  facet normal -2.278535e-01 1.508363e-16 9.736954e-01
    outer loop
      vertex   3.877706e+01 -1.000000e+01 3.587681e+00
      vertex   3.877706e+01 -1.500000e+01 3.587681e+00
      vertex   4.026778e+01 -1.000000e+01 3.936522e+00
    endloop
  endfacet
  facet normal -2.278535e-01 0.000000e+00 9.736954e-01
    outer loop
      vertex   4.026778e+01 -1.000000e+01 3.936522e+00
      vertex   3.877706e+01 -1.500000e+01 3.587681e+00
      vertex   4.026778e+01 -1.500000e+01 3.936522e+00
    endloop
  endfacet
  facet normal -3.738171e-01 0.000000e+00 9.275025e-01
    outer loop
      vertex   4.026778e+01 -1.000000e+01 3.936522e+00
      vertex   4.026778e+01 -1.500000e+01 3.936522e+00
      vertex   4.168777e+01 -1.000000e+01 4.508830e+00
    endloop
  endfacet
  facet normal -3.738171e-01 -8.237877e-16 9.275025e-01
    outer loop
      vertex   4.168777e+01 -1.000000e+01 4.508830e+00
      vertex   4.026778e+01 -1.500000e+01 3.936522e+00
      vertex   4.168777e+01 -1.500000e+01 4.508830e+00
    endloop
  endfacet
  facet normal -5.110187e-01 -7.634512e-16 8.595696e-01
    outer loop
      vertex   4.168777e+01 -1.000000e+01 4.508830e+00
      vertex   4.168777e+01 -1.500000e+01 4.508830e+00
      vertex   4.300376e+01 -1.000000e+01 5.291192e+00
    endloop
  endfacet
  facet normal -5.110187e-01 -3.053805e-16 8.595696e-01
    outer loop
      vertex   4.300376e+01 -1.000000e+01 5.291192e+00
      vertex   4.168777e+01 -1.500000e+01 4.508830e+00
      vertex   4.300376e+01 -1.500000e+01 5.291192e+00
    endloop
  endfacet
  facet normal -6.362424e-01 -2.740880e-16 7.714892e-01
    outer loop
      vertex   4.300376e+01 -1.000000e+01 5.291192e+00
      vertex   4.300376e+01 -1.500000e+01 5.291192e+00
      vertex   4.418490e+01 -1.000000e+01 6.265270e+00
    endloop
  endfacet
  facet normal -6.362424e-01 0.000000e+00 7.714892e-01
    outer loop
      vertex   4.418490e+01 -1.000000e+01 6.265270e+00
      vertex   4.300376e+01 -1.500000e+01 5.291192e+00
      vertex   4.418490e+01 -1.500000e+01 6.265270e+00
    endloop
  endfacet
  facet normal -7.465532e-01 0.000000e+00 6.653257e-01
    outer loop
      vertex   4.418490e+01 -1.000000e+01 6.265270e+00
      vertex   4.418490e+01 -1.500000e+01 6.265270e+00
      vertex   4.520350e+01 -1.000000e+01 7.408231e+00
    endloop
  endfacet
  facet normal -7.465532e-01 -8.272991e-16 6.653257e-01
    outer loop
      vertex   4.520350e+01 -1.000000e+01 7.408231e+00
      vertex   4.418490e+01 -1.500000e+01 6.265270e+00
      vertex   4.520350e+01 -1.500000e+01 7.408231e+00
    endloop
  endfacet
  facet normal -8.393654e-01 -6.758990e-16 5.435676e-01
    outer loop
      vertex   4.520350e+01 -1.000000e+01 7.408231e+00
      vertex   4.520350e+01 -1.500000e+01 7.408231e+00
      vertex   4.603569e+01 -1.000000e+01 8.693287e+00
    endloop
  endfacet
  facet normal -8.393654e-01 -3.862280e-16 5.435676e-01
    outer loop
      vertex   4.603569e+01 -1.000000e+01 8.693287e+00
      vertex   4.520350e+01 -1.500000e+01 7.408231e+00
      vertex   4.603569e+01 -1.500000e+01 8.693287e+00
    endloop
  endfacet
  facet normal -9.125036e-01 -2.906607e-16 4.090686e-01
    outer loop
      vertex   4.603569e+01 -1.000000e+01 8.693287e+00
      vertex   4.603569e+01 -1.500000e+01 8.693287e+00
      vertex   4.666197e+01 -1.000000e+01 1.009032e+01
    endloop
  endfacet
  facet normal -9.125036e-01 -5.813215e-16 4.090686e-01
    outer loop
      vertex   4.666197e+01 -1.000000e+01 1.009032e+01
      vertex   4.603569e+01 -1.500000e+01 8.693287e+00
      vertex   4.666197e+01 -1.500000e+01 1.009032e+01
    endloop
  endfacet
  facet normal -9.642535e-01 -3.765614e-16 2.649815e-01
    outer loop
      vertex   4.666197e+01 -1.000000e+01 1.009032e+01
      vertex   4.666197e+01 -1.500000e+01 1.009032e+01
      vertex   4.706766e+01 -1.000000e+01 1.156657e+01
    endloop
  endfacet
  facet normal -9.642535e-01 -1.882807e-16 2.649815e-01
    outer loop
      vertex   4.706766e+01 -1.000000e+01 1.156657e+01
      vertex   4.666197e+01 -1.500000e+01 1.009032e+01
      vertex   4.706766e+01 -1.500000e+01 1.156657e+01
    endloop
  endfacet
  facet normal -9.934021e-01 -8.148747e-17 1.146834e-01
    outer loop
      vertex   4.706766e+01 -1.000000e+01 1.156657e+01
      vertex   4.706766e+01 -1.500000e+01 1.156657e+01
      vertex   4.724323e+01 -1.000000e+01 1.308746e+01
    endloop
  endfacet
  facet normal -9.934021e-01 -8.148747e-17 1.146834e-01
    outer loop
      vertex   4.724323e+01 -1.000000e+01 1.308746e+01
      vertex   4.706766e+01 -1.500000e+01 1.156657e+01
      vertex   4.724323e+01 -1.500000e+01 1.308746e+01
    endloop
  endfacet
  facet normal -9.992662e-01 2.721573e-17 -3.830273e-02
    outer loop
      vertex   4.724323e+01 -1.000000e+01 1.308746e+01
      vertex   4.724323e+01 -1.500000e+01 1.308746e+01
      vertex   4.718459e+01 -1.000000e+01 1.461732e+01
    endloop
  endfacet
  facet normal -9.992662e-01 5.443146e-17 -3.830273e-02
    outer loop
      vertex   4.718459e+01 -1.000000e+01 1.461732e+01
      vertex   4.724323e+01 -1.500000e+01 1.308746e+01
      vertex   4.718459e+01 -1.500000e+01 1.461732e+01
    endloop
  endfacet
  facet normal -9.817083e-01 2.705620e-16 -1.903911e-01
    outer loop
      vertex   4.718459e+01 -1.000000e+01 1.461732e+01
      vertex   4.718459e+01 -1.500000e+01 1.461732e+01
      vertex   4.689311e+01 -1.000000e+01 1.612030e+01
    endloop
  endfacet
  facet normal -9.817083e-01 2.705620e-16 -1.903911e-01
    outer loop
      vertex   4.689311e+01 -1.000000e+01 1.612030e+01
      vertex   4.718459e+01 -1.500000e+01 1.461732e+01
      vertex   4.689311e+01 -1.500000e+01 1.612030e+01
    endloop
  endfacet
  facet normal -9.411400e-01 4.803509e-16 -3.380169e-01
    outer loop
      vertex   4.689311e+01 -1.000000e+01 1.612030e+01
      vertex   4.689311e+01 -1.500000e+01 1.612030e+01
      vertex   4.637561e+01 -1.000000e+01 1.756117e+01
    endloop
  endfacet
  facet normal -9.411400e-01 -1.954355e-15 -3.380169e-01
    outer loop
      vertex   4.637561e+01 -1.000000e+01 1.756117e+01
      vertex   4.689311e+01 -1.500000e+01 1.612030e+01
      vertex   4.637561e+01 -1.500000e+01 1.756117e+01
    endloop
  endfacet
  facet normal -8.785123e-01 -1.478561e-15 -4.777198e-01
    outer loop
      vertex   4.637561e+01 -1.000000e+01 1.756117e+01
      vertex   4.637561e+01 -1.500000e+01 1.756117e+01
      vertex   4.564423e+01 -1.000000e+01 1.890616e+01
    endloop
  endfacet
  facet normal -8.785123e-01 3.394403e-16 -4.777198e-01
    outer loop
      vertex   4.564423e+01 -1.000000e+01 1.890616e+01
      vertex   4.637561e+01 -1.500000e+01 1.756117e+01
      vertex   4.564423e+01 -1.500000e+01 1.890616e+01
    endloop
  endfacet
  facet normal -7.952929e-01 4.307491e-16 -6.062254e-01
    outer loop
      vertex   4.564423e+01 -1.000000e+01 1.890616e+01
      vertex   4.564423e+01 -1.500000e+01 1.890616e+01
      vertex   4.471610e+01 -1.000000e+01 2.012374e+01
    endloop
  endfacet
  facet normal -7.952929e-01 -1.829609e-15 -6.062254e-01
    outer loop
      vertex   4.471610e+01 -1.000000e+01 2.012374e+01
      vertex   4.564423e+01 -1.500000e+01 1.890616e+01
      vertex   4.471610e+01 -1.500000e+01 2.012374e+01
    endloop
  endfacet
  facet normal -6.934325e-01 -1.458892e-15 -7.205216e-01
    outer loop
      vertex   4.471610e+01 -1.000000e+01 2.012374e+01
      vertex   4.471610e+01 -1.500000e+01 2.012374e+01
      vertex   4.361300e+01 -1.000000e+01 2.118538e+01
    endloop
  endfacet
  facet normal -6.934325e-01 -9.854269e-16 -7.205216e-01
    outer loop
      vertex   4.361300e+01 -1.000000e+01 2.118538e+01
      vertex   4.471610e+01 -1.500000e+01 2.012374e+01
      vertex   4.361300e+01 -1.500000e+01 2.118538e+01
    endloop
  endfacet
  facet normal -5.753187e-01 -8.175770e-16 -8.179294e-01
    outer loop
      vertex   4.361300e+01 -1.000000e+01 2.118538e+01
      vertex   4.361300e+01 -1.500000e+01 2.118538e+01
      vertex   4.236076e+01 -1.000000e+01 2.206618e+01
    endloop
  endfacet
  facet normal -5.753187e-01 -1.053980e-15 -8.179294e-01
    outer loop
      vertex   4.236076e+01 -1.000000e+01 2.206618e+01
      vertex   4.361300e+01 -1.500000e+01 2.118538e+01
      vertex   4.236076e+01 -1.500000e+01 2.206618e+01
    endloop
  endfacet
  facet normal -4.437198e-01 -6.243637e-16 -8.961656e-01
    outer loop
      vertex   4.236076e+01 -1.000000e+01 2.206618e+01
      vertex   4.236076e+01 -1.500000e+01 2.206618e+01
      vertex   4.098874e+01 -1.000000e+01 2.274551e+01
    endloop
  endfacet
  facet normal -4.437198e-01 6.367639e-16 -8.961656e-01
    outer loop
      vertex   4.098874e+01 -1.000000e+01 2.274551e+01
      vertex   4.236076e+01 -1.500000e+01 2.206618e+01
      vertex   4.098874e+01 -1.500000e+01 2.274551e+01
    endloop
  endfacet
  facet normal -3.017206e-01 6.774289e-16 -9.533964e-01
    outer loop
      vertex   4.098874e+01 -1.000000e+01 2.274551e+01
      vertex   4.098874e+01 -1.500000e+01 2.274551e+01
      vertex   3.952911e+01 -1.000000e+01 2.320744e+01
    endloop
  endfacet
  facet normal -3.017206e-01 2.486581e-16 -9.533964e-01
    outer loop
      vertex   3.952911e+01 -1.000000e+01 2.320744e+01
      vertex   4.098874e+01 -1.500000e+01 2.274551e+01
      vertex   3.952911e+01 -1.500000e+01 2.320744e+01
    endloop
  endfacet
  facet normal -1.526493e-01 4.852878e-16 -9.882804e-01
    outer loop
      vertex   3.952911e+01 -1.000000e+01 2.320744e+01
      vertex   3.952911e+01 -1.500000e+01 2.320744e+01
      vertex   3.801606e+01 -1.000000e+01 2.344114e+01
    endloop
  endfacet
  facet normal -1.526493e-01 -2.169277e-16 -9.882804e-01
    outer loop
      vertex   3.801606e+01 -1.000000e+01 2.344114e+01
      vertex   3.952911e+01 -1.500000e+01 2.320744e+01
      vertex   3.801606e+01 -1.500000e+01 2.344114e+01
    endloop
  endfacet
  facet normal -0.000000e+00 -0.000000e+00 -1.000000e+00
    outer loop
      vertex   3.801606e+01 -1.000000e+01 2.344114e+01
      vertex   3.801606e+01 -1.500000e+01 2.344114e+01
      vertex   3.648508e+01 -1.000000e+01 2.344114e+01
    endloop
  endfacet
  facet normal 0.000000e+00 0.000000e+00 -1.000000e+00
    outer loop
      vertex   3.648508e+01 -1.000000e+01 2.344114e+01
      vertex   3.801606e+01 -1.500000e+01 2.344114e+01
      vertex   3.648508e+01 -1.500000e+01 2.344114e+01
    endloop
  endfacet
  facet normal 1.526493e-01 2.169277e-16 -9.882804e-01
    outer loop
      vertex   3.648508e+01 -1.000000e+01 2.344114e+01
      vertex   3.648508e+01 -1.500000e+01 2.344114e+01
      vertex   3.497204e+01 -1.000000e+01 2.320744e+01
    endloop
  endfacet
  facet normal 1.526493e-01 -4.852878e-16 -9.882804e-01
    outer loop
      vertex   3.497204e+01 -1.000000e+01 2.320744e+01
      vertex   3.648508e+01 -1.500000e+01 2.344114e+01
      vertex   3.497204e+01 -1.500000e+01 2.320744e+01
    endloop
  endfacet
  facet normal 3.017206e-01 -2.486581e-16 -9.533964e-01
    outer loop
      vertex   3.497204e+01 -1.000000e+01 2.320744e+01
      vertex   3.497204e+01 -1.500000e+01 2.320744e+01
      vertex   3.351240e+01 -1.000000e+01 2.274551e+01
    endloop
  endfacet
  facet normal 3.017206e-01 -2.486581e-16 -9.533964e-01
    outer loop
      vertex   3.351240e+01 -1.000000e+01 2.274551e+01
      vertex   3.497204e+01 -1.500000e+01 2.320744e+01
      vertex   3.351240e+01 -1.500000e+01 2.274551e+01
    endloop
  endfacet
  facet normal 4.437198e-01 -6.200112e-18 -8.961656e-01
    outer loop
      vertex   3.351240e+01 -1.000000e+01 2.274551e+01
      vertex   3.351240e+01 -1.500000e+01 2.274551e+01
      vertex   3.214039e+01 -1.000000e+01 2.206618e+01
    endloop
  endfacet
  facet normal 4.437198e-01 -6.200112e-18 -8.961656e-01
    outer loop
      vertex   3.214039e+01 -1.000000e+01 2.206618e+01
      vertex   3.351240e+01 -1.500000e+01 2.274551e+01
      vertex   3.214039e+01 -1.500000e+01 2.206618e+01
    endloop
  endfacet
  facet normal 5.753187e-01 2.364032e-16 -8.179294e-01
    outer loop
      vertex   3.214039e+01 -1.000000e+01 2.206618e+01
      vertex   3.214039e+01 -1.500000e+01 2.206618e+01
      vertex   3.088815e+01 -1.000000e+01 2.118538e+01
    endloop
  endfacet
  facet normal 5.753187e-01 8.175770e-16 -8.179294e-01
    outer loop
      vertex   3.088815e+01 -1.000000e+01 2.118538e+01
      vertex   3.214039e+01 -1.500000e+01 2.206618e+01
      vertex   3.088815e+01 -1.500000e+01 2.118538e+01
    endloop
  endfacet
  facet normal 6.934325e-01 9.854269e-16 -7.205216e-01
    outer loop
      vertex   3.088815e+01 -1.000000e+01 2.118538e+01
      vertex   3.088815e+01 -1.500000e+01 2.118538e+01
      vertex   2.978504e+01 -1.000000e+01 2.012374e+01
    endloop
  endfacet
  facet normal 6.934325e-01 -5.119614e-16 -7.205216e-01
    outer loop
      vertex   2.978504e+01 -1.000000e+01 2.012374e+01
      vertex   3.088815e+01 -1.500000e+01 2.118538e+01
      vertex   2.978504e+01 -1.500000e+01 2.012374e+01
    endloop
  endfacet
  facet normal 7.952929e-01 -4.307491e-16 -6.062254e-01
    outer loop
      vertex   2.978504e+01 -1.000000e+01 2.012374e+01
      vertex   2.978504e+01 -1.500000e+01 2.012374e+01
      vertex   2.885692e+01 -1.000000e+01 1.890616e+01
    endloop
  endfacet
  facet normal 7.952929e-01 1.343405e-16 -6.062254e-01
    outer loop
      vertex   2.885692e+01 -1.000000e+01 1.890616e+01
      vertex   2.978504e+01 -1.500000e+01 2.012374e+01
      vertex   2.885692e+01 -1.500000e+01 1.890616e+01
    endloop
  endfacet
  facet normal 8.785123e-01 2.847802e-16 -4.777198e-01
    outer loop
      vertex   2.885692e+01 -1.000000e+01 1.890616e+01
      vertex   2.885692e+01 -1.500000e+01 1.890616e+01
      vertex   2.812554e+01 -1.000000e+01 1.756117e+01
    endloop
  endfacet
  facet normal 8.785123e-01 2.301200e-16 -4.777198e-01
    outer loop
      vertex   2.812554e+01 -1.000000e+01 1.756117e+01
      vertex   2.885692e+01 -1.500000e+01 1.890616e+01
      vertex   2.812554e+01 -1.500000e+01 1.756117e+01
    endloop
  endfacet
  facet normal 9.411400e-01 6.169141e-16 -3.380169e-01
    outer loop
      vertex   2.812554e+01 -1.000000e+01 1.756117e+01
      vertex   2.812554e+01 -1.500000e+01 1.756117e+01
      vertex   2.760804e+01 -1.000000e+01 1.612030e+01
    endloop
  endfacet
  facet normal 9.411400e-01 -4.803509e-16 -3.380169e-01
    outer loop
      vertex   2.760804e+01 -1.000000e+01 1.612030e+01
      vertex   2.812554e+01 -1.500000e+01 1.756117e+01
      vertex   2.760804e+01 -1.500000e+01 1.612030e+01
    endloop
  endfacet
  facet normal 9.817083e-01 -2.705620e-16 -1.903911e-01
    outer loop
      vertex   2.760804e+01 -1.000000e+01 1.612030e+01
      vertex   2.760804e+01 -1.500000e+01 1.612030e+01
      vertex   2.731655e+01 -1.000000e+01 1.461732e+01
    endloop
  endfacet
  facet normal 9.817083e-01 -2.705620e-16 -1.903911e-01
    outer loop
      vertex   2.731655e+01 -1.000000e+01 1.461732e+01
      vertex   2.760804e+01 -1.500000e+01 1.612030e+01
      vertex   2.731655e+01 -1.500000e+01 1.461732e+01
    endloop
  endfacet
  facet normal 9.992662e-01 -5.443146e-17 -3.830273e-02
    outer loop
      vertex   2.731655e+01 -1.000000e+01 1.461732e+01
      vertex   2.731655e+01 -1.500000e+01 1.461732e+01
      vertex   2.725791e+01 -1.000000e+01 1.308746e+01
    endloop
  endfacet
  facet normal 9.992662e-01 -2.721573e-17 -3.830273e-02
    outer loop
      vertex   2.725791e+01 -1.000000e+01 1.308746e+01
      vertex   2.731655e+01 -1.500000e+01 1.461732e+01
      vertex   2.725791e+01 -1.500000e+01 1.308746e+01
    endloop
  endfacet
  facet normal 9.934021e-01 8.148747e-17 1.146834e-01
    outer loop
      vertex   2.725791e+01 -1.000000e+01 1.308746e+01
      vertex   2.725791e+01 -1.500000e+01 1.308746e+01
      vertex   2.743349e+01 -1.000000e+01 1.156657e+01
    endloop
  endfacet
  facet normal 9.934021e-01 8.148747e-17 1.146834e-01
    outer loop
      vertex   2.743349e+01 -1.000000e+01 1.156657e+01
      vertex   2.725791e+01 -1.500000e+01 1.308746e+01
      vertex   2.743349e+01 -1.500000e+01 1.156657e+01
    endloop
  endfacet
  facet normal 9.642535e-01 1.882807e-16 2.649815e-01
    outer loop
      vertex   2.743349e+01 -1.000000e+01 1.156657e+01
      vertex   2.743349e+01 -1.500000e+01 1.156657e+01
      vertex   2.783917e+01 -1.000000e+01 1.009032e+01
    endloop
  endfacet
  facet normal 9.642535e-01 3.765614e-16 2.649815e-01
    outer loop
      vertex   2.783917e+01 -1.000000e+01 1.009032e+01
      vertex   2.743349e+01 -1.500000e+01 1.156657e+01
      vertex   2.783917e+01 -1.500000e+01 1.009032e+01
    endloop
  endfacet
  facet normal 9.125036e-01 5.813215e-16 4.090686e-01
    outer loop
      vertex   2.783917e+01 -1.000000e+01 1.009032e+01
      vertex   2.783917e+01 -1.500000e+01 1.009032e+01
      vertex   2.846545e+01 -1.000000e+01 8.693287e+00
    endloop
  endfacet
  facet normal 9.125036e-01 2.906607e-16 4.090686e-01
    outer loop
      vertex   2.846545e+01 -1.000000e+01 8.693287e+00
      vertex   2.783917e+01 -1.500000e+01 1.009032e+01
      vertex   2.846545e+01 -1.500000e+01 8.693287e+00
    endloop
  endfacet
  facet normal 8.393654e-01 3.862280e-16 5.435676e-01
    outer loop
      vertex   2.846545e+01 -1.000000e+01 8.693287e+00
      vertex   2.846545e+01 -1.500000e+01 8.693287e+00
      vertex   2.929764e+01 -1.000000e+01 7.408231e+00
    endloop
  endfacet
  facet normal 8.393654e-01 7.949395e-17 5.435676e-01
    outer loop
      vertex   2.929764e+01 -1.000000e+01 7.408231e+00
      vertex   2.846545e+01 -1.500000e+01 8.693287e+00
      vertex   2.929764e+01 -1.500000e+01 7.408231e+00
    endloop
  endfacet
  facet normal 7.465532e-01 2.968411e-16 6.653257e-01
    outer loop
      vertex   2.929764e+01 -1.000000e+01 7.408231e+00
      vertex   2.929764e+01 -1.500000e+01 7.408231e+00
      vertex   3.031625e+01 -1.000000e+01 6.265270e+00
    endloop
  endfacet
  facet normal 7.465532e-01 0.000000e+00 6.653257e-01
    outer loop
      vertex   3.031625e+01 -1.000000e+01 6.265270e+00
      vertex   2.929764e+01 -1.500000e+01 7.408231e+00
      vertex   3.031625e+01 -1.500000e+01 6.265270e+00
    endloop
  endfacet
  facet normal 6.362424e-01 0.000000e+00 7.714892e-01
    outer loop
      vertex   3.031625e+01 -1.000000e+01 6.265270e+00
      vertex   3.031625e+01 -1.500000e+01 6.265270e+00
      vertex   3.149739e+01 -1.000000e+01 5.291192e+00
    endloop
  endfacet
  facet normal 6.362424e-01 -1.779894e-16 7.714892e-01
    outer loop
      vertex   3.149739e+01 -1.000000e+01 5.291192e+00
      vertex   3.031625e+01 -1.500000e+01 6.265270e+00
      vertex   3.149739e+01 -1.500000e+01 5.291192e+00
    endloop
  endfacet
  facet normal 5.110187e-01 -5.772014e-17 8.595696e-01
    outer loop
      vertex   3.149739e+01 -1.000000e+01 5.291192e+00
      vertex   3.149739e+01 -1.500000e+01 5.291192e+00
      vertex   3.281337e+01 -1.000000e+01 4.508830e+00
    endloop
  endfacet
  facet normal 5.110187e-01 3.724995e-17 8.595696e-01
    outer loop
      vertex   3.281337e+01 -1.000000e+01 4.508830e+00
      vertex   3.149739e+01 -1.500000e+01 5.291192e+00
      vertex   3.281337e+01 -1.500000e+01 4.508830e+00
    endloop
  endfacet
  facet normal 3.738171e-01 2.925617e-16 9.275025e-01
    outer loop
      vertex   3.281337e+01 -1.000000e+01 4.508830e+00
      vertex   3.281337e+01 -1.500000e+01 4.508830e+00
      vertex   3.423337e+01 -1.000000e+01 3.936522e+00
    endloop
  endfacet
  facet normal 3.738171e-01 0.000000e+00 9.275025e-01
    outer loop
      vertex   3.423337e+01 -1.000000e+01 3.936522e+00
      vertex   3.281337e+01 -1.500000e+01 4.508830e+00
      vertex   3.423337e+01 -1.500000e+01 3.936522e+00
    endloop
  endfacet
  facet normal 2.278535e-01 0.000000e+00 9.736954e-01
    outer loop
      vertex   3.423337e+01 -1.000000e+01 3.936522e+00
      vertex   3.423337e+01 -1.500000e+01 3.936522e+00
      vertex   3.572408e+01 -1.000000e+01 3.587681e+00
    endloop
  endfacet
  facet normal 2.278535e-01 -1.508363e-16 9.736954e-01
    outer loop
      vertex   3.572408e+01 -1.000000e+01 3.587681e+00
      vertex   3.423337e+01 -1.500000e+01 3.936522e+00
      vertex   3.572408e+01 -1.500000e+01 3.587681e+00
    endloop
  endfacet
  facet normal 0.000000e+00 1.000000e+00 -0.000000e+00
    outer loop
      vertex   8.100000e+01 0.000000e+00 1.000000e+02
      vertex   7.600000e+01 0.000000e+00 1.000000e+02
      vertex   8.100000e+01 0.000000e+00 1.600000e+02
    endloop
  endfacet
  facet normal 0.000000e+00 1.000000e+00 0.000000e+00
    outer loop
      vertex   8.100000e+01 0.000000e+00 1.600000e+02
      vertex   7.600000e+01 0.000000e+00 1.000000e+02
      vertex   7.600000e+01 0.000000e+00 1.600000e+02
    endloop
  endfacet
  facet normal 0.000000e+00 1.000000e+00 -0.000000e+00
    outer loop
      vertex   0.000000e+00 0.000000e+00 1.000000e+02
      vertex   -5.000000e+00 0.000000e+00 1.000000e+02
      vertex   0.000000e+00 0.000000e+00 1.600000e+02
    endloop
  endfacet
  facet normal 0.000000e+00 1.000000e+00 0.000000e+00
    outer loop
      vertex   0.000000e+00 0.000000e+00 1.600000e+02
      vertex   -5.000000e+00 0.000000e+00 1.000000e+02
      vertex   -5.000000e+00 0.000000e+00 1.600000e+02
    endloop
  endfacet
  facet normal -0.000000e+00 1.000000e+00 0.000000e+00
    outer loop
      vertex   7.000000e+01 -1.000000e+01 1.500000e+02
      vertex   7.600000e+01 -1.000000e+01 1.600000e+02
      vertex   7.000000e+01 -1.000000e+01 4.000000e+01
    endloop
  endfacet
  facet normal -0.000000e+00 1.000000e+00 0.000000e+00
    outer loop
      vertex   7.000000e+01 -1.000000e+01 4.000000e+01
      vertex   7.600000e+01 -1.000000e+01 1.600000e+02
      vertex   7.600000e+01 -1.000000e+01 0.000000e+00
    endloop
  endfacet
  facet normal 0.000000e+00 1.000000e+00 0.000000e+00
    outer loop
      vertex   7.000000e+01 -1.000000e+01 4.000000e+01
      vertex   7.600000e+01 -1.000000e+01 0.000000e+00
      vertex   4.724323e+01 -1.000000e+01 1.308746e+01
    endloop
  endfacet
  facet normal 0.000000e+00 1.000000e+00 0.000000e+00
    outer loop
      vertex   4.724323e+01 -1.000000e+01 1.308746e+01
      vertex   7.600000e+01 -1.000000e+01 0.000000e+00
      vertex   4.706766e+01 -1.000000e+01 1.156657e+01
    endloop
  endfacet
  facet normal 0.000000e+00 1.000000e+00 0.000000e+00
    outer loop
      vertex   4.706766e+01 -1.000000e+01 1.156657e+01
      vertex   7.600000e+01 -1.000000e+01 0.000000e+00
      vertex   4.666197e+01 -1.000000e+01 1.009032e+01
    endloop
  endfacet
  facet normal 0.000000e+00 1.000000e+00 0.000000e+00
    outer loop
      vertex   4.666197e+01 -1.000000e+01 1.009032e+01
      vertex   7.600000e+01 -1.000000e+01 0.000000e+00
      vertex   4.603569e+01 -1.000000e+01 8.693287e+00
    endloop
  endfacet
  facet normal 0.000000e+00 1.000000e+00 0.000000e+00
    outer loop
      vertex   4.603569e+01 -1.000000e+01 8.693287e+00
      vertex   7.600000e+01 -1.000000e+01 0.000000e+00
      vertex   4.520350e+01 -1.000000e+01 7.408231e+00
    endloop
  endfacet
  facet normal 0.000000e+00 1.000000e+00 0.000000e+00
    outer loop
      vertex   4.520350e+01 -1.000000e+01 7.408231e+00
      vertex   7.600000e+01 -1.000000e+01 0.000000e+00
      vertex   4.418490e+01 -1.000000e+01 6.265270e+00
    endloop
  endfacet
  facet normal 0.000000e+00 1.000000e+00 0.000000e+00
    outer loop
      vertex   4.418490e+01 -1.000000e+01 6.265270e+00
      vertex   7.600000e+01 -1.000000e+01 0.000000e+00
      vertex   4.300376e+01 -1.000000e+01 5.291192e+00
    endloop
  endfacet
  facet normal 0.000000e+00 1.000000e+00 0.000000e+00
    outer loop
      vertex   4.300376e+01 -1.000000e+01 5.291192e+00
      vertex   7.600000e+01 -1.000000e+01 0.000000e+00
      vertex   4.168777e+01 -1.000000e+01 4.508830e+00
    endloop
  endfacet
  facet normal 0.000000e+00 1.000000e+00 0.000000e+00
    outer loop
      vertex   4.168777e+01 -1.000000e+01 4.508830e+00
      vertex   7.600000e+01 -1.000000e+01 0.000000e+00
      vertex   4.026778e+01 -1.000000e+01 3.936522e+00
    endloop
  endfacet
  facet normal 0.000000e+00 1.000000e+00 0.000000e+00
    outer loop
      vertex   4.026778e+01 -1.000000e+01 3.936522e+00
      vertex   7.600000e+01 -1.000000e+01 0.000000e+00
      vertex   3.877706e+01 -1.000000e+01 3.587681e+00
    endloop
  endfacet
  facet normal 0.000000e+00 1.000000e+00 0.000000e+00
    outer loop
      vertex   3.877706e+01 -1.000000e+01 3.587681e+00
      vertex   7.600000e+01 -1.000000e+01 0.000000e+00
      vertex   3.725057e+01 -1.000000e+01 3.470485e+00
    endloop
  endfacet
  facet normal 0.000000e+00 1.000000e+00 0.000000e+00
    outer loop
      vertex   3.725057e+01 -1.000000e+01 3.470485e+00
      vertex   7.600000e+01 -1.000000e+01 0.000000e+00
      vertex   0.000000e+00 -1.000000e+01 0.000000e+00
    endloop
  endfacet
  facet normal 0.000000e+00 1.000000e+00 0.000000e+00
    outer loop
      vertex   3.725057e+01 -1.000000e+01 3.470485e+00
      vertex   0.000000e+00 -1.000000e+01 0.000000e+00
      vertex   3.572408e+01 -1.000000e+01 3.587681e+00
    endloop
  endfacet
  facet normal 0.000000e+00 1.000000e+00 0.000000e+00
    outer loop
      vertex   3.572408e+01 -1.000000e+01 3.587681e+00
      vertex   0.000000e+00 -1.000000e+01 0.000000e+00
      vertex   3.423337e+01 -1.000000e+01 3.936522e+00
    endloop
  endfacet
  facet normal 0.000000e+00 1.000000e+00 0.000000e+00
    outer loop
      vertex   3.423337e+01 -1.000000e+01 3.936522e+00
      vertex   0.000000e+00 -1.000000e+01 0.000000e+00
      vertex   3.281337e+01 -1.000000e+01 4.508830e+00
    endloop
  endfacet
  facet normal 0.000000e+00 1.000000e+00 0.000000e+00
    outer loop
      vertex   3.281337e+01 -1.000000e+01 4.508830e+00
      vertex   0.000000e+00 -1.000000e+01 0.000000e+00
      vertex   3.149739e+01 -1.000000e+01 5.291192e+00
    endloop
  endfacet
  facet normal 0.000000e+00 1.000000e+00 0.000000e+00
    outer loop
      vertex   3.149739e+01 -1.000000e+01 5.291192e+00
      vertex   0.000000e+00 -1.000000e+01 0.000000e+00
      vertex   3.031625e+01 -1.000000e+01 6.265270e+00
    endloop
  endfacet
  facet normal 0.000000e+00 1.000000e+00 0.000000e+00
    outer loop
      vertex   3.031625e+01 -1.000000e+01 6.265270e+00
      vertex   0.000000e+00 -1.000000e+01 0.000000e+00
      vertex   2.929764e+01 -1.000000e+01 7.408231e+00
    endloop
  endfacet
  facet normal 0.000000e+00 1.000000e+00 0.000000e+00
    outer loop
      vertex   2.929764e+01 -1.000000e+01 7.408231e+00
      vertex   0.000000e+00 -1.000000e+01 0.000000e+00
      vertex   2.846545e+01 -1.000000e+01 8.693287e+00
    endloop
  endfacet
  facet normal 0.000000e+00 1.000000e+00 0.000000e+00
    outer loop
      vertex   2.846545e+01 -1.000000e+01 8.693287e+00
      vertex   0.000000e+00 -1.000000e+01 0.000000e+00
      vertex   2.783917e+01 -1.000000e+01 1.009032e+01
    endloop
  endfacet
  facet normal 0.000000e+00 1.000000e+00 0.000000e+00
    outer loop
      vertex   2.783917e+01 -1.000000e+01 1.009032e+01
      vertex   0.000000e+00 -1.000000e+01 0.000000e+00
      vertex   2.743349e+01 -1.000000e+01 1.156657e+01
    endloop
  endfacet
  facet normal 0.000000e+00 1.000000e+00 0.000000e+00
    outer loop
      vertex   2.743349e+01 -1.000000e+01 1.156657e+01
      vertex   0.000000e+00 -1.000000e+01 0.000000e+00
      vertex   2.725791e+01 -1.000000e+01 1.308746e+01
    endloop
  endfacet
  facet normal 0.000000e+00 1.000000e+00 0.000000e+00
    outer loop
      vertex   2.725791e+01 -1.000000e+01 1.308746e+01
      vertex   0.000000e+00 -1.000000e+01 0.000000e+00
      vertex   1.000000e+01 -1.000000e+01 4.000000e+01
    endloop
  endfacet
  facet normal 0.000000e+00 1.000000e+00 -0.000000e+00
    outer loop
      vertex   2.725791e+01 -1.000000e+01 1.308746e+01
      vertex   1.000000e+01 -1.000000e+01 4.000000e+01
      vertex   2.731655e+01 -1.000000e+01 1.461732e+01
    endloop
  endfacet
  facet normal 0.000000e+00 1.000000e+00 -0.000000e+00
    outer loop
      vertex   2.731655e+01 -1.000000e+01 1.461732e+01
      vertex   1.000000e+01 -1.000000e+01 4.000000e+01
      vertex   2.760804e+01 -1.000000e+01 1.612030e+01
    endloop
  endfacet
  facet normal 0.000000e+00 1.000000e+00 -0.000000e+00
    outer loop
      vertex   2.760804e+01 -1.000000e+01 1.612030e+01
      vertex   1.000000e+01 -1.000000e+01 4.000000e+01
      vertex   2.812554e+01 -1.000000e+01 1.756117e+01
    endloop
  endfacet
  facet normal 0.000000e+00 1.000000e+00 -0.000000e+00
    outer loop
      vertex   2.812554e+01 -1.000000e+01 1.756117e+01
      vertex   1.000000e+01 -1.000000e+01 4.000000e+01
      vertex   2.885692e+01 -1.000000e+01 1.890616e+01
    endloop
  endfacet
  facet normal 0.000000e+00 1.000000e+00 -0.000000e+00
    outer loop
      vertex   2.885692e+01 -1.000000e+01 1.890616e+01
      vertex   1.000000e+01 -1.000000e+01 4.000000e+01
      vertex   2.978504e+01 -1.000000e+01 2.012374e+01
    endloop
  endfacet
  facet normal 0.000000e+00 1.000000e+00 -0.000000e+00
    outer loop
      vertex   2.978504e+01 -1.000000e+01 2.012374e+01
      vertex   1.000000e+01 -1.000000e+01 4.000000e+01
      vertex   3.088815e+01 -1.000000e+01 2.118538e+01
    endloop
  endfacet
  facet normal 0.000000e+00 1.000000e+00 -0.000000e+00
    outer loop
      vertex   3.088815e+01 -1.000000e+01 2.118538e+01
      vertex   1.000000e+01 -1.000000e+01 4.000000e+01
      vertex   3.214039e+01 -1.000000e+01 2.206618e+01
    endloop
  endfacet
  facet normal 0.000000e+00 1.000000e+00 -0.000000e+00
    outer loop
      vertex   3.214039e+01 -1.000000e+01 2.206618e+01
      vertex   1.000000e+01 -1.000000e+01 4.000000e+01
      vertex   3.351240e+01 -1.000000e+01 2.274551e+01
    endloop
  endfacet
  facet normal 0.000000e+00 1.000000e+00 -0.000000e+00
    outer loop
      vertex   3.351240e+01 -1.000000e+01 2.274551e+01
      vertex   1.000000e+01 -1.000000e+01 4.000000e+01
      vertex   3.497204e+01 -1.000000e+01 2.320744e+01
    endloop
  endfacet
  facet normal 0.000000e+00 1.000000e+00 -0.000000e+00
    outer loop
      vertex   3.497204e+01 -1.000000e+01 2.320744e+01
      vertex   1.000000e+01 -1.000000e+01 4.000000e+01
      vertex   3.648508e+01 -1.000000e+01 2.344114e+01
    endloop
  endfacet
  facet normal 0.000000e+00 1.000000e+00 -0.000000e+00
    outer loop
      vertex   3.648508e+01 -1.000000e+01 2.344114e+01
      vertex   1.000000e+01 -1.000000e+01 4.000000e+01
      vertex   3.801606e+01 -1.000000e+01 2.344114e+01
    endloop
  endfacet
  facet normal 0.000000e+00 1.000000e+00 -0.000000e+00
    outer loop
      vertex   3.801606e+01 -1.000000e+01 2.344114e+01
      vertex   1.000000e+01 -1.000000e+01 4.000000e+01
      vertex   7.000000e+01 -1.000000e+01 4.000000e+01
    endloop
  endfacet
  facet normal -0.000000e+00 1.000000e+00 0.000000e+00
    outer loop
      vertex   3.801606e+01 -1.000000e+01 2.344114e+01
      vertex   7.000000e+01 -1.000000e+01 4.000000e+01
      vertex   3.952911e+01 -1.000000e+01 2.320744e+01
    endloop
  endfacet
  facet normal -0.000000e+00 1.000000e+00 0.000000e+00
    outer loop
      vertex   3.952911e+01 -1.000000e+01 2.320744e+01
      vertex   7.000000e+01 -1.000000e+01 4.000000e+01
      vertex   4.098874e+01 -1.000000e+01 2.274551e+01
    endloop
  endfacet
  facet normal -0.000000e+00 1.000000e+00 0.000000e+00
    outer loop
      vertex   4.098874e+01 -1.000000e+01 2.274551e+01
      vertex   7.000000e+01 -1.000000e+01 4.000000e+01
      vertex   4.236076e+01 -1.000000e+01 2.206618e+01
    endloop
  endfacet
  facet normal -0.000000e+00 1.000000e+00 0.000000e+00
    outer loop
      vertex   4.236076e+01 -1.000000e+01 2.206618e+01
      vertex   7.000000e+01 -1.000000e+01 4.000000e+01
      vertex   4.361300e+01 -1.000000e+01 2.118538e+01
    endloop
  endfacet
  facet normal -0.000000e+00 1.000000e+00 0.000000e+00
    outer loop
      vertex   4.361300e+01 -1.000000e+01 2.118538e+01
      vertex   7.000000e+01 -1.000000e+01 4.000000e+01
      vertex   4.471610e+01 -1.000000e+01 2.012374e+01
    endloop
  endfacet
  facet normal -0.000000e+00 1.000000e+00 0.000000e+00
    outer loop
      vertex   4.471610e+01 -1.000000e+01 2.012374e+01
      vertex   7.000000e+01 -1.000000e+01 4.000000e+01
      vertex   4.564423e+01 -1.000000e+01 1.890616e+01
    endloop
  endfacet
  facet normal -0.000000e+00 1.000000e+00 0.000000e+00
    outer loop
      vertex   4.564423e+01 -1.000000e+01 1.890616e+01
      vertex   7.000000e+01 -1.000000e+01 4.000000e+01
      vertex   4.637561e+01 -1.000000e+01 1.756117e+01
    endloop
  endfacet
  facet normal -0.000000e+00 1.000000e+00 0.000000e+00
    outer loop
      vertex   4.637561e+01 -1.000000e+01 1.756117e+01
      vertex   7.000000e+01 -1.000000e+01 4.000000e+01
      vertex   4.689311e+01 -1.000000e+01 1.612030e+01
    endloop
  endfacet
  facet normal -0.000000e+00 1.000000e+00 0.000000e+00
    outer loop
      vertex   4.689311e+01 -1.000000e+01 1.612030e+01
      vertex   7.000000e+01 -1.000000e+01 4.000000e+01
      vertex   4.718459e+01 -1.000000e+01 1.461732e+01
    endloop
  endfacet
  facet normal -0.000000e+00 1.000000e+00 0.000000e+00
    outer loop
      vertex   4.718459e+01 -1.000000e+01 1.461732e+01
      vertex   7.000000e+01 -1.000000e+01 4.000000e+01
      vertex   4.724323e+01 -1.000000e+01 1.308746e+01
    endloop
  endfacet
  facet normal 0.000000e+00 1.000000e+00 -0.000000e+00
    outer loop
      vertex   7.000000e+01 -1.000000e+01 1.500000e+02
      vertex   1.000000e+01 -1.000000e+01 1.500000e+02
      vertex   7.600000e+01 -1.000000e+01 1.600000e+02
    endloop
  endfacet
  facet normal 0.000000e+00 1.000000e+00 0.000000e+00
    outer loop
      vertex   7.600000e+01 -1.000000e+01 1.600000e+02
      vertex   1.000000e+01 -1.000000e+01 1.500000e+02
      vertex   0.000000e+00 -1.000000e+01 1.600000e+02
    endloop
  endfacet
  facet normal 0.000000e+00 1.000000e+00 0.000000e+00
    outer loop
      vertex   0.000000e+00 -1.000000e+01 1.600000e+02
      vertex   1.000000e+01 -1.000000e+01 1.500000e+02
      vertex   1.000000e+01 -1.000000e+01 4.000000e+01
    endloop
  endfacet
  facet normal 0.000000e+00 1.000000e+00 0.000000e+00
    outer loop
      vertex   0.000000e+00 -1.000000e+01 1.600000e+02
      vertex   1.000000e+01 -1.000000e+01 4.000000e+01
      vertex   0.000000e+00 -1.000000e+01 0.000000e+00
    endloop
  endfacet
  facet normal -0.000000e+00 0.000000e+00 1.000000e+00
    outer loop
      vertex   0.000000e+00 -1.000000e+01 1.600000e+02
      vertex   8.100000e+01 -1.500000e+01 1.600000e+02
      vertex   7.600000e+01 -1.000000e+01 1.600000e+02
    endloop
  endfacet
  facet normal -0.000000e+00 0.000000e+00 1.000000e+00
    outer loop
      vertex   7.600000e+01 -1.000000e+01 1.600000e+02
      vertex   8.100000e+01 -1.500000e+01 1.600000e+02
      vertex   8.100000e+01 0.000000e+00 1.600000e+02
    endloop
  endfacet
  facet normal 0.000000e+00 0.000000e+00 1.000000e+00
    outer loop
      vertex   7.600000e+01 -1.000000e+01 1.600000e+02
      vertex   8.100000e+01 0.000000e+00 1.600000e+02
      vertex   7.600000e+01 0.000000e+00 1.600000e+02
    endloop
  endfacet
  facet normal 0.000000e+00 0.000000e+00 1.000000e+00
    outer loop
      vertex   0.000000e+00 0.000000e+00 1.600000e+02
      vertex   -5.000000e+00 0.000000e+00 1.600000e+02
      vertex   0.000000e+00 -1.000000e+01 1.600000e+02
    endloop
  endfacet
  facet normal 0.000000e+00 0.000000e+00 1.000000e+00
    outer loop
      vertex   0.000000e+00 -1.000000e+01 1.600000e+02
      vertex   -5.000000e+00 0.000000e+00 1.600000e+02
      vertex   -5.000000e+00 -1.500000e+01 1.600000e+02
    endloop
  endfacet
  facet normal 0.000000e+00 0.000000e+00 1.000000e+00
    outer loop
      vertex   0.000000e+00 -1.000000e+01 1.600000e+02
      vertex   -5.000000e+00 -1.500000e+01 1.600000e+02
      vertex   8.100000e+01 -1.500000e+01 1.600000e+02
    endloop
  endfacet
  facet normal -1.000000e+00 0.000000e+00 0.000000e+00
    outer loop
      vertex   7.600000e+01 -4.660962e-01 8.751865e+01
      vertex   7.600000e+01 0.000000e+00 1.000000e+02
      vertex   7.600000e+01 -4.660962e-01 6.562799e+01
    endloop
  endfacet
  facet normal -1.000000e+00 0.000000e+00 0.000000e+00
    outer loop
      vertex   7.600000e+01 -4.660962e-01 6.562799e+01
      vertex   7.600000e+01 0.000000e+00 1.000000e+02
      vertex   7.600000e+01 0.000000e+00 0.000000e+00
    endloop
  endfacet
  facet normal -1.000000e+00 -0.000000e+00 -0.000000e+00
    outer loop
      vertex   7.600000e+01 -4.660962e-01 6.562799e+01
      vertex   7.600000e+01 0.000000e+00 0.000000e+00
      vertex   7.600000e+01 -9.315752e+00 6.562799e+01
    endloop
  endfacet
  facet normal -1.000000e+00 0.000000e+00 -0.000000e+00
    outer loop
      vertex   7.600000e+01 -9.315752e+00 6.562799e+01
      vertex   7.600000e+01 0.000000e+00 0.000000e+00
      vertex   7.600000e+01 -1.000000e+01 0.000000e+00
    endloop
  endfacet
  facet normal -1.000000e+00 -0.000000e+00 0.000000e+00
    outer loop
      vertex   7.600000e+01 -9.315752e+00 6.562799e+01
      vertex   7.600000e+01 -1.000000e+01 0.000000e+00
      vertex   7.600000e+01 -9.315752e+00 8.751865e+01
    endloop
  endfacet
  facet normal -1.000000e+00 -0.000000e+00 0.000000e+00
    outer loop
      vertex   7.600000e+01 -9.315752e+00 8.751865e+01
      vertex   7.600000e+01 -1.000000e+01 0.000000e+00
      vertex   7.600000e+01 -1.000000e+01 1.600000e+02
    endloop
  endfacet
  facet normal -1.000000e+00 0.000000e+00 0.000000e+00
    outer loop
      vertex   7.600000e+01 -9.315752e+00 8.751865e+01
      vertex   7.600000e+01 -1.000000e+01 1.600000e+02
      vertex   7.600000e+01 0.000000e+00 1.600000e+02
    endloop
  endfacet
  facet normal -1.000000e+00 -0.000000e+00 0.000000e+00
    outer loop
      vertex   7.600000e+01 0.000000e+00 1.000000e+02
      vertex   7.600000e+01 -4.660962e-01 8.751865e+01
      vertex   7.600000e+01 0.000000e+00 1.600000e+02
    endloop
  endfacet
  facet normal -1.000000e+00 0.000000e+00 0.000000e+00
    outer loop
      vertex   7.600000e+01 0.000000e+00 1.600000e+02
      vertex   7.600000e+01 -4.660962e-01 8.751865e+01
      vertex   7.600000e+01 -9.315752e+00 8.751865e+01
    endloop
  endfacet
  facet normal 0.000000e+00 0.000000e+00 1.000000e+00
    outer loop
      vertex   2.300000e+01 0.000000e+00 0.000000e+00
      vertex   0.000000e+00 0.000000e+00 0.000000e+00
      vertex   2.300000e+01 -8.000000e+00 0.000000e+00
    endloop
  endfacet
  facet normal 0.000000e+00 0.000000e+00 1.000000e+00
    outer loop
      vertex   2.300000e+01 -8.000000e+00 0.000000e+00
      vertex   0.000000e+00 0.000000e+00 0.000000e+00
      vertex   0.000000e+00 -1.000000e+01 0.000000e+00
    endloop
  endfacet
  facet normal 0.000000e+00 0.000000e+00 1.000000e+00
    outer loop
      vertex   2.300000e+01 -8.000000e+00 0.000000e+00
      vertex   0.000000e+00 -1.000000e+01 0.000000e+00
      vertex   7.600000e+01 -1.000000e+01 0.000000e+00
    endloop
  endfacet
  facet normal -0.000000e+00 0.000000e+00 1.000000e+00
    outer loop
      vertex   2.300000e+01 -8.000000e+00 0.000000e+00
      vertex   7.600000e+01 -1.000000e+01 0.000000e+00
      vertex   5.800000e+01 -8.000000e+00 0.000000e+00
    endloop
  endfacet
  facet normal -0.000000e+00 0.000000e+00 1.000000e+00
    outer loop
      vertex   5.800000e+01 -8.000000e+00 0.000000e+00
      vertex   7.600000e+01 -1.000000e+01 0.000000e+00
      vertex   7.600000e+01 0.000000e+00 0.000000e+00
    endloop
  endfacet
  facet normal 0.000000e+00 0.000000e+00 1.000000e+00
    outer loop
      vertex   5.800000e+01 -8.000000e+00 0.000000e+00
      vertex   7.600000e+01 0.000000e+00 0.000000e+00
      vertex   5.800000e+01 0.000000e+00 0.000000e+00
    endloop
  endfacet
  facet normal 1.000000e+00 0.000000e+00 -0.000000e+00
    outer loop
      vertex   0.000000e+00 0.000000e+00 0.000000e+00
      vertex   0.000000e+00 0.000000e+00 1.000000e+02
      vertex   0.000000e+00 -1.000000e+01 0.000000e+00
    endloop
  endfacet
  facet normal 1.000000e+00 0.000000e+00 0.000000e+00
    outer loop
      vertex   0.000000e+00 -1.000000e+01 0.000000e+00
      vertex   0.000000e+00 0.000000e+00 1.000000e+02
      vertex   0.000000e+00 -1.000000e+01 1.600000e+02
    endloop
  endfacet
  facet normal 1.000000e+00 -0.000000e+00 0.000000e+00
    outer loop
      vertex   0.000000e+00 -1.000000e+01 1.600000e+02
      vertex   0.000000e+00 0.000000e+00 1.000000e+02
      vertex   0.000000e+00 0.000000e+00 1.600000e+02
    endloop
  endfacet
  facet normal 1.000000e+00 0.000000e+00 0.000000e+00
    outer loop
      vertex   8.100000e+01 -4.660962e-01 6.562799e+01
      vertex   8.100000e+01 5.000000e+00 1.000000e+02
      vertex   8.100000e+01 -4.660962e-01 8.751865e+01
    endloop
  endfacet
  facet normal 1.000000e+00 0.000000e+00 0.000000e+00
    outer loop
      vertex   8.100000e+01 -4.660962e-01 8.751865e+01
      vertex   8.100000e+01 5.000000e+00 1.000000e+02
      vertex   8.100000e+01 0.000000e+00 1.000000e+02
    endloop
  endfacet
  facet normal 1.000000e+00 0.000000e+00 -0.000000e+00
    outer loop
      vertex   8.100000e+01 -4.660962e-01 8.751865e+01
      vertex   8.100000e+01 0.000000e+00 1.000000e+02
      vertex   8.100000e+01 -9.315752e+00 8.751865e+01
    endloop
  endfacet
  facet normal 1.000000e+00 0.000000e+00 0.000000e+00
    outer loop
      vertex   8.100000e+01 -9.315752e+00 8.751865e+01
      vertex   8.100000e+01 0.000000e+00 1.000000e+02
      vertex   8.100000e+01 0.000000e+00 1.600000e+02
    endloop
  endfacet
  facet normal 1.000000e+00 0.000000e+00 -0.000000e+00
    outer loop
      vertex   8.100000e+01 -9.315752e+00 8.751865e+01
      vertex   8.100000e+01 0.000000e+00 1.600000e+02
      vertex   8.100000e+01 -1.500000e+01 1.600000e+02
    endloop
  endfacet
  facet normal 1.000000e+00 0.000000e+00 0.000000e+00
    outer loop
      vertex   8.100000e+01 5.000000e+00 1.000000e+02
      vertex   8.100000e+01 -4.660962e-01 6.562799e+01
      vertex   8.100000e+01 5.000000e+00 -5.000000e+00
    endloop
  endfacet
  facet normal 1.000000e+00 0.000000e+00 0.000000e+00
    outer loop
      vertex   8.100000e+01 5.000000e+00 -5.000000e+00
      vertex   8.100000e+01 -4.660962e-01 6.562799e+01
      vertex   8.100000e+01 -9.315752e+00 6.562799e+01
    endloop
  endfacet
  facet normal 1.000000e+00 0.000000e+00 0.000000e+00
    outer loop
      vertex   8.100000e+01 5.000000e+00 -5.000000e+00
      vertex   8.100000e+01 -9.315752e+00 6.562799e+01
      vertex   8.100000e+01 -1.500000e+01 -5.000000e+00
    endloop
  endfacet
  facet normal 1.000000e+00 0.000000e+00 0.000000e+00
    outer loop
      vertex   8.100000e+01 -1.500000e+01 -5.000000e+00
      vertex   8.100000e+01 -9.315752e+00 6.562799e+01
      vertex   8.100000e+01 -9.315752e+00 8.751865e+01
    endloop
  endfacet
  facet normal 1.000000e+00 0.000000e+00 0.000000e+00
    outer loop
      vertex   8.100000e+01 -1.500000e+01 -5.000000e+00
      vertex   8.100000e+01 -9.315752e+00 8.751865e+01
      vertex   8.100000e+01 -1.500000e+01 1.600000e+02
    endloop
  endfacet
  facet normal 0.000000e+00 0.000000e+00 -1.000000e+00
    outer loop
      vertex   5.800000e+01 0.000000e+00 -5.000000e+00
      vertex   8.100000e+01 5.000000e+00 -5.000000e+00
      vertex   5.800000e+01 -8.000000e+00 -5.000000e+00
    endloop
  endfacet
  facet normal 0.000000e+00 0.000000e+00 -1.000000e+00
    outer loop
      vertex   5.800000e+01 -8.000000e+00 -5.000000e+00
      vertex   8.100000e+01 5.000000e+00 -5.000000e+00
      vertex   8.100000e+01 -1.500000e+01 -5.000000e+00
    endloop
  endfacet
  facet normal -0.000000e+00 -0.000000e+00 -1.000000e+00
    outer loop
      vertex   5.800000e+01 -8.000000e+00 -5.000000e+00
      vertex   8.100000e+01 -1.500000e+01 -5.000000e+00
      vertex   2.300000e+01 -8.000000e+00 -5.000000e+00
    endloop
  endfacet
  facet normal 0.000000e+00 -0.000000e+00 -1.000000e+00
    outer loop
      vertex   2.300000e+01 -8.000000e+00 -5.000000e+00
      vertex   8.100000e+01 -1.500000e+01 -5.000000e+00
      vertex   -5.000000e+00 -1.500000e+01 -5.000000e+00
    endloop
  endfacet
  facet normal -0.000000e+00 0.000000e+00 -1.000000e+00
    outer loop
      vertex   2.300000e+01 -8.000000e+00 -5.000000e+00
      vertex   -5.000000e+00 -1.500000e+01 -5.000000e+00
      vertex   -5.000000e+00 5.000000e+00 -5.000000e+00
    endloop
  endfacet
  facet normal 0.000000e+00 0.000000e+00 -1.000000e+00
    outer loop
      vertex   5.800000e+01 0.000000e+00 -5.000000e+00
      vertex   2.300000e+01 0.000000e+00 -5.000000e+00
      vertex   8.100000e+01 5.000000e+00 -5.000000e+00
    endloop
  endfacet
  facet normal -0.000000e+00 0.000000e+00 -1.000000e+00
    outer loop
      vertex   8.100000e+01 5.000000e+00 -5.000000e+00
      vertex   2.300000e+01 0.000000e+00 -5.000000e+00
      vertex   -5.000000e+00 5.000000e+00 -5.000000e+00
    endloop
  endfacet
  facet normal 0.000000e+00 0.000000e+00 -1.000000e+00
    outer loop
      vertex   -5.000000e+00 5.000000e+00 -5.000000e+00
      vertex   2.300000e+01 0.000000e+00 -5.000000e+00
      vertex   2.300000e+01 -8.000000e+00 -5.000000e+00
    endloop
  endfacet
  facet normal -1.000000e+00 -8.881784e-16 -3.383537e-17
    outer loop
      vertex   -5.000000e+00 5.000000e+00 1.000000e+02
      vertex   -5.000000e+00 5.000000e+00 -5.000000e+00
      vertex   -5.000000e+00 0.000000e+00 1.000000e+02
    endloop
  endfacet
  facet normal -1.000000e+00 0.000000e+00 8.458842e-18
    outer loop
      vertex   -5.000000e+00 0.000000e+00 1.000000e+02
      vertex   -5.000000e+00 5.000000e+00 -5.000000e+00
      vertex   -5.000000e+00 -1.500000e+01 -5.000000e+00
    endloop
  endfacet
  facet normal -1.000000e+00 2.099331e-16 -2.153160e-17
    outer loop
      vertex   -5.000000e+00 0.000000e+00 1.000000e+02
      vertex   -5.000000e+00 -1.500000e+01 -5.000000e+00
      vertex   -5.000000e+00 -1.500000e+01 1.600000e+02
    endloop
  endfacet
  facet normal -1.000000e+00 2.960595e-16 0.000000e+00
    outer loop
      vertex   -5.000000e+00 -1.500000e+01 1.600000e+02
      vertex   -5.000000e+00 0.000000e+00 1.600000e+02
      vertex   -5.000000e+00 0.000000e+00 1.000000e+02
    endloop
  endfacet
  facet normal 0.000000e+00 -1.000000e+00 0.000000e+00
    outer loop
      vertex   1.000000e+01 -1.500000e+01 1.500000e+02
      vertex   7.000000e+01 -1.500000e+01 1.500000e+02
      vertex   8.100000e+01 -1.500000e+01 1.600000e+02
    endloop
  endfacet
  facet normal 0.000000e+00 -1.000000e+00 0.000000e+00
    outer loop
      vertex   8.100000e+01 -1.500000e+01 1.600000e+02
      vertex   7.000000e+01 -1.500000e+01 1.500000e+02
      vertex   7.000000e+01 -1.500000e+01 4.000000e+01
    endloop
  endfacet
  facet normal 0.000000e+00 -1.000000e+00 -0.000000e+00
    outer loop
      vertex   8.100000e+01 -1.500000e+01 1.600000e+02
      vertex   7.000000e+01 -1.500000e+01 4.000000e+01
      vertex   8.100000e+01 -1.500000e+01 -5.000000e+00
    endloop
  endfacet
  facet normal 0.000000e+00 -1.000000e+00 0.000000e+00
    outer loop
      vertex   8.100000e+01 -1.500000e+01 -5.000000e+00
      vertex   7.000000e+01 -1.500000e+01 4.000000e+01
      vertex   4.724323e+01 -1.500000e+01 1.308746e+01
    endloop
  endfacet
  facet normal 0.000000e+00 -1.000000e+00 0.000000e+00
    outer loop
      vertex   8.100000e+01 -1.500000e+01 -5.000000e+00
      vertex   4.724323e+01 -1.500000e+01 1.308746e+01
      vertex   4.706766e+01 -1.500000e+01 1.156657e+01
    endloop
  endfacet
  facet normal 0.000000e+00 -1.000000e+00 0.000000e+00
    outer loop
      vertex   1.000000e+01 -1.500000e+01 4.000000e+01
      vertex   3.801606e+01 -1.500000e+01 2.344114e+01
      vertex   7.000000e+01 -1.500000e+01 4.000000e+01
    endloop
  endfacet
  facet normal 0.000000e+00 -1.000000e+00 0.000000e+00
    outer loop
      vertex   7.000000e+01 -1.500000e+01 4.000000e+01
      vertex   3.801606e+01 -1.500000e+01 2.344114e+01
      vertex   3.952911e+01 -1.500000e+01 2.320744e+01
    endloop
  endfacet
  facet normal 0.000000e+00 -1.000000e+00 0.000000e+00
    outer loop
      vertex   7.000000e+01 -1.500000e+01 4.000000e+01
      vertex   3.952911e+01 -1.500000e+01 2.320744e+01
      vertex   4.098874e+01 -1.500000e+01 2.274551e+01
    endloop
  endfacet
  facet normal -0.000000e+00 -1.000000e+00 -0.000000e+00
    outer loop
      vertex   1.000000e+01 -1.500000e+01 1.500000e+02
      vertex   -5.000000e+00 -1.500000e+01 1.600000e+02
      vertex   1.000000e+01 -1.500000e+01 4.000000e+01
    endloop
  endfacet
  facet normal -0.000000e+00 -1.000000e+00 0.000000e+00
    outer loop
      vertex   1.000000e+01 -1.500000e+01 4.000000e+01
      vertex   -5.000000e+00 -1.500000e+01 1.600000e+02
      vertex   -5.000000e+00 -1.500000e+01 -5.000000e+00
    endloop
  endfacet
  facet normal 0.000000e+00 -1.000000e+00 -0.000000e+00
    outer loop
      vertex   1.000000e+01 -1.500000e+01 4.000000e+01
      vertex   -5.000000e+00 -1.500000e+01 -5.000000e+00
      vertex   2.725791e+01 -1.500000e+01 1.308746e+01
    endloop
  endfacet
  facet normal 0.000000e+00 -1.000000e+00 -0.000000e+00
    outer loop
      vertex   2.725791e+01 -1.500000e+01 1.308746e+01
      vertex   -5.000000e+00 -1.500000e+01 -5.000000e+00
      vertex   2.743349e+01 -1.500000e+01 1.156657e+01
    endloop
  endfacet
  facet normal 0.000000e+00 -1.000000e+00 -0.000000e+00
    outer loop
      vertex   2.743349e+01 -1.500000e+01 1.156657e+01
      vertex   -5.000000e+00 -1.500000e+01 -5.000000e+00
      vertex   2.783917e+01 -1.500000e+01 1.009032e+01
    endloop
  endfacet
  facet normal 0.000000e+00 -1.000000e+00 -0.000000e+00
    outer loop
      vertex   2.783917e+01 -1.500000e+01 1.009032e+01
      vertex   -5.000000e+00 -1.500000e+01 -5.000000e+00
      vertex   2.846545e+01 -1.500000e+01 8.693287e+00
    endloop
  endfacet
  facet normal 0.000000e+00 -1.000000e+00 -0.000000e+00
    outer loop
      vertex   2.846545e+01 -1.500000e+01 8.693287e+00
      vertex   -5.000000e+00 -1.500000e+01 -5.000000e+00
      vertex   2.929764e+01 -1.500000e+01 7.408231e+00
    endloop
  endfacet
  facet normal 0.000000e+00 -1.000000e+00 -0.000000e+00
    outer loop
      vertex   2.929764e+01 -1.500000e+01 7.408231e+00
      vertex   -5.000000e+00 -1.500000e+01 -5.000000e+00
      vertex   3.031625e+01 -1.500000e+01 6.265270e+00
    endloop
  endfacet
  facet normal 0.000000e+00 -1.000000e+00 -0.000000e+00
    outer loop
      vertex   3.031625e+01 -1.500000e+01 6.265270e+00
      vertex   -5.000000e+00 -1.500000e+01 -5.000000e+00
      vertex   3.149739e+01 -1.500000e+01 5.291192e+00
    endloop
  endfacet
  facet normal 0.000000e+00 -1.000000e+00 -0.000000e+00
    outer loop
      vertex   3.149739e+01 -1.500000e+01 5.291192e+00
      vertex   -5.000000e+00 -1.500000e+01 -5.000000e+00
      vertex   3.281337e+01 -1.500000e+01 4.508830e+00
    endloop
  endfacet
  facet normal 0.000000e+00 -1.000000e+00 -0.000000e+00
    outer loop
      vertex   3.281337e+01 -1.500000e+01 4.508830e+00
      vertex   -5.000000e+00 -1.500000e+01 -5.000000e+00
      vertex   3.423337e+01 -1.500000e+01 3.936522e+00
    endloop
  endfacet
  facet normal 0.000000e+00 -1.000000e+00 -0.000000e+00
    outer loop
      vertex   3.423337e+01 -1.500000e+01 3.936522e+00
      vertex   -5.000000e+00 -1.500000e+01 -5.000000e+00
      vertex   3.572408e+01 -1.500000e+01 3.587681e+00
    endloop
  endfacet
  facet normal 0.000000e+00 -1.000000e+00 -0.000000e+00
    outer loop
      vertex   3.572408e+01 -1.500000e+01 3.587681e+00
      vertex   -5.000000e+00 -1.500000e+01 -5.000000e+00
      vertex   3.725057e+01 -1.500000e+01 3.470485e+00
    endloop
  endfacet
  facet normal 0.000000e+00 -1.000000e+00 -0.000000e+00
    outer loop
      vertex   3.725057e+01 -1.500000e+01 3.470485e+00
      vertex   -5.000000e+00 -1.500000e+01 -5.000000e+00
      vertex   8.100000e+01 -1.500000e+01 -5.000000e+00
    endloop
  endfacet
  facet normal 0.000000e+00 -1.000000e+00 0.000000e+00
    outer loop
      vertex   3.725057e+01 -1.500000e+01 3.470485e+00
      vertex   8.100000e+01 -1.500000e+01 -5.000000e+00
      vertex   3.877706e+01 -1.500000e+01 3.587681e+00
    endloop
  endfacet
  facet normal 0.000000e+00 -1.000000e+00 0.000000e+00
    outer loop
      vertex   3.877706e+01 -1.500000e+01 3.587681e+00
      vertex   8.100000e+01 -1.500000e+01 -5.000000e+00
      vertex   4.026778e+01 -1.500000e+01 3.936522e+00
    endloop
  endfacet
  facet normal 0.000000e+00 -1.000000e+00 0.000000e+00
    outer loop
      vertex   4.026778e+01 -1.500000e+01 3.936522e+00
      vertex   8.100000e+01 -1.500000e+01 -5.000000e+00
      vertex   4.168777e+01 -1.500000e+01 4.508830e+00
    endloop
  endfacet
  facet normal 0.000000e+00 -1.000000e+00 0.000000e+00
    outer loop
      vertex   4.168777e+01 -1.500000e+01 4.508830e+00
      vertex   8.100000e+01 -1.500000e+01 -5.000000e+00
      vertex   4.300376e+01 -1.500000e+01 5.291192e+00
    endloop
  endfacet
  facet normal 0.000000e+00 -1.000000e+00 0.000000e+00
    outer loop
      vertex   4.300376e+01 -1.500000e+01 5.291192e+00
      vertex   8.100000e+01 -1.500000e+01 -5.000000e+00
      vertex   4.418490e+01 -1.500000e+01 6.265270e+00
    endloop
  endfacet
  facet normal 0.000000e+00 -1.000000e+00 0.000000e+00
    outer loop
      vertex   4.418490e+01 -1.500000e+01 6.265270e+00
      vertex   8.100000e+01 -1.500000e+01 -5.000000e+00
      vertex   4.520350e+01 -1.500000e+01 7.408231e+00
    endloop
  endfacet
  facet normal 0.000000e+00 -1.000000e+00 0.000000e+00
    outer loop
      vertex   4.520350e+01 -1.500000e+01 7.408231e+00
      vertex   8.100000e+01 -1.500000e+01 -5.000000e+00
      vertex   4.603569e+01 -1.500000e+01 8.693287e+00
    endloop
  endfacet
  facet normal 0.000000e+00 -1.000000e+00 0.000000e+00
    outer loop
      vertex   4.603569e+01 -1.500000e+01 8.693287e+00
      vertex   8.100000e+01 -1.500000e+01 -5.000000e+00
      vertex   4.666197e+01 -1.500000e+01 1.009032e+01
    endloop
  endfacet
  facet normal 0.000000e+00 -1.000000e+00 0.000000e+00
    outer loop
      vertex   4.666197e+01 -1.500000e+01 1.009032e+01
      vertex   8.100000e+01 -1.500000e+01 -5.000000e+00
      vertex   4.706766e+01 -1.500000e+01 1.156657e+01
    endloop
  endfacet
  facet normal 0.000000e+00 -1.000000e+00 0.000000e+00
    outer loop
      vertex   -5.000000e+00 -1.500000e+01 1.600000e+02
      vertex   1.000000e+01 -1.500000e+01 1.500000e+02
      vertex   8.100000e+01 -1.500000e+01 1.600000e+02
    endloop
  endfacet
  facet normal 0.000000e+00 -1.000000e+00 0.000000e+00
    outer loop
      vertex   2.725791e+01 -1.500000e+01 1.308746e+01
      vertex   2.731655e+01 -1.500000e+01 1.461732e+01
      vertex   1.000000e+01 -1.500000e+01 4.000000e+01
    endloop
  endfacet
  facet normal 0.000000e+00 -1.000000e+00 0.000000e+00
    outer loop
      vertex   1.000000e+01 -1.500000e+01 4.000000e+01
      vertex   2.731655e+01 -1.500000e+01 1.461732e+01
      vertex   2.760804e+01 -1.500000e+01 1.612030e+01
    endloop
  endfacet
  facet normal 0.000000e+00 -1.000000e+00 0.000000e+00
    outer loop
      vertex   1.000000e+01 -1.500000e+01 4.000000e+01
      vertex   2.760804e+01 -1.500000e+01 1.612030e+01
      vertex   2.812554e+01 -1.500000e+01 1.756117e+01
    endloop
  endfacet
  facet normal 0.000000e+00 -1.000000e+00 0.000000e+00
    outer loop
      vertex   2.812554e+01 -1.500000e+01 1.756117e+01
      vertex   2.885692e+01 -1.500000e+01 1.890616e+01
      vertex   1.000000e+01 -1.500000e+01 4.000000e+01
    endloop
  endfacet
  facet normal 0.000000e+00 -1.000000e+00 0.000000e+00
    outer loop
      vertex   1.000000e+01 -1.500000e+01 4.000000e+01
      vertex   2.885692e+01 -1.500000e+01 1.890616e+01
      vertex   2.978504e+01 -1.500000e+01 2.012374e+01
    endloop
  endfacet
  facet normal 0.000000e+00 -1.000000e+00 0.000000e+00
    outer loop
      vertex   1.000000e+01 -1.500000e+01 4.000000e+01
      vertex   2.978504e+01 -1.500000e+01 2.012374e+01
      vertex   3.088815e+01 -1.500000e+01 2.118538e+01
    endloop
  endfacet
  facet normal 0.000000e+00 -1.000000e+00 0.000000e+00
    outer loop
      vertex   3.088815e+01 -1.500000e+01 2.118538e+01
      vertex   3.214039e+01 -1.500000e+01 2.206618e+01
      vertex   1.000000e+01 -1.500000e+01 4.000000e+01
    endloop
  endfacet
  facet normal 0.000000e+00 -1.000000e+00 0.000000e+00
    outer loop
      vertex   1.000000e+01 -1.500000e+01 4.000000e+01
      vertex   3.214039e+01 -1.500000e+01 2.206618e+01
      vertex   3.351240e+01 -1.500000e+01 2.274551e+01
    endloop
  endfacet
  facet normal 0.000000e+00 -1.000000e+00 0.000000e+00
    outer loop
      vertex   1.000000e+01 -1.500000e+01 4.000000e+01
      vertex   3.351240e+01 -1.500000e+01 2.274551e+01
      vertex   3.497204e+01 -1.500000e+01 2.320744e+01
    endloop
  endfacet
  facet normal 0.000000e+00 -1.000000e+00 0.000000e+00
    outer loop
      vertex   3.497204e+01 -1.500000e+01 2.320744e+01
      vertex   3.648508e+01 -1.500000e+01 2.344114e+01
      vertex   1.000000e+01 -1.500000e+01 4.000000e+01
    endloop
  endfacet
  facet normal 0.000000e+00 -1.000000e+00 0.000000e+00
    outer loop
      vertex   1.000000e+01 -1.500000e+01 4.000000e+01
      vertex   3.648508e+01 -1.500000e+01 2.344114e+01
      vertex   3.801606e+01 -1.500000e+01 2.344114e+01
    endloop
  endfacet
  facet normal 0.000000e+00 -1.000000e+00 0.000000e+00
    outer loop
      vertex   4.098874e+01 -1.500000e+01 2.274551e+01
      vertex   4.236076e+01 -1.500000e+01 2.206618e+01
      vertex   7.000000e+01 -1.500000e+01 4.000000e+01
    endloop
  endfacet
  facet normal 0.000000e+00 -1.000000e+00 0.000000e+00
    outer loop
      vertex   7.000000e+01 -1.500000e+01 4.000000e+01
      vertex   4.236076e+01 -1.500000e+01 2.206618e+01
      vertex   4.361300e+01 -1.500000e+01 2.118538e+01
    endloop
  endfacet
  facet normal 0.000000e+00 -1.000000e+00 0.000000e+00
    outer loop
      vertex   7.000000e+01 -1.500000e+01 4.000000e+01
      vertex   4.361300e+01 -1.500000e+01 2.118538e+01
      vertex   4.471610e+01 -1.500000e+01 2.012374e+01
    endloop
  endfacet
  facet normal 0.000000e+00 -1.000000e+00 0.000000e+00
    outer loop
      vertex   4.471610e+01 -1.500000e+01 2.012374e+01
      vertex   4.564423e+01 -1.500000e+01 1.890616e+01
      vertex   7.000000e+01 -1.500000e+01 4.000000e+01
    endloop
  endfacet
  facet normal 0.000000e+00 -1.000000e+00 0.000000e+00
    outer loop
      vertex   7.000000e+01 -1.500000e+01 4.000000e+01
      vertex   4.564423e+01 -1.500000e+01 1.890616e+01
      vertex   4.637561e+01 -1.500000e+01 1.756117e+01
    endloop
  endfacet
  facet normal 0.000000e+00 -1.000000e+00 0.000000e+00
    outer loop
      vertex   7.000000e+01 -1.500000e+01 4.000000e+01
      vertex   4.637561e+01 -1.500000e+01 1.756117e+01
      vertex   4.689311e+01 -1.500000e+01 1.612030e+01
    endloop
  endfacet
  facet normal 0.000000e+00 -1.000000e+00 0.000000e+00
    outer loop
      vertex   4.689311e+01 -1.500000e+01 1.612030e+01
      vertex   4.718459e+01 -1.500000e+01 1.461732e+01
      vertex   7.000000e+01 -1.500000e+01 4.000000e+01
    endloop
  endfacet
  facet normal 0.000000e+00 -1.000000e+00 0.000000e+00
    outer loop
      vertex   7.000000e+01 -1.500000e+01 4.000000e+01
      vertex   4.718459e+01 -1.500000e+01 1.461732e+01
      vertex   4.724323e+01 -1.500000e+01 1.308746e+01
    endloop
  endfacet
endsolid
